<?xml version="1.0" encoding="utf-8"?>
<!-- Generator: Adobe Illustrator 16.0.0, SVG Export Plug-In . SVG Version: 6.00 Build 0)  -->
<!DOCTYPE svg PUBLIC "-//W3C//DTD SVG 1.1//EN" "http://www.w3.org/Graphics/SVG/1.1/DTD/svg11.dtd">
<svg version="1.1" id="_x31_1" xmlns="http://www.w3.org/2000/svg" xmlns:xlink="http://www.w3.org/1999/xlink" x="0px" y="0px"
	 width="8753px" height="4292px" viewBox="0 0 8753 4292" enable-background="new 0 0 8753 4292" xml:space="preserve">
<rect x="0" y="0" fill="#C9ED9A" width="8753" height="4292"/>
<g id="Layer_1">
	<g id="Layer_1_1_">
		<g id="wijewardana">
			<g>
				<polygon fill="#CD9894" points="5615.032,1105.146 5780.024,1235.64 5750.025,1069.148 				"/>
				<polygon fill="#DFA6A1" points="5750.025,1069.148 6042.511,707.667 6036.511,587.672 5615.032,1105.146 				"/>
				<polygon fill="#986061" points="5750.025,1069.148 5780.024,1235.64 6201.502,719.666 6042.511,707.667 				"/>
				<polyline fill="#8F636D" points="6201.502,719.666 6036.511,587.672 6042.511,707.667 				"/>
				<polygon fill="#9E848A" points="5615.032,1105.146 5589.53,1135.141 5602.281,1145.64 5576.03,1181.639 5595.531,1198.138 
					5553.532,1246.135 5670.526,1348.13 5742.522,1256.635 5760.521,1270.134 5780.024,1241.636 5780.024,1235.64 				"/>
				<path fill="#A19099" d="M6036.511,587.672l19.496-28.501l17.999,14.251l22.499-30.75l14.999,12l32.998-38.998l100.495,79.496
					l-25.499,35.998l16.5,22.501L6215,679.165c17.998,20.998,41.998,2.999,17.998,20.998c-23.998,17.999-16.502,16.496-23.998,18
					S6036.511,587.672,6036.511,587.672z"/>
				<polygon fill="#95635E" points="5165,289 5349,1235.64 5435,1226.639 5415,1139 5447,1143 5285,289 				"/>
				<path fill="#E7AFA7" d="M5165,289l-114,60l146,844h18c20,74,134,42.64,134,42.64"/>
				<polygon fill="#886065" points="4482.583,1000.149 4865.063,1220.638 5012.056,1210.139 4461.583,896.654 				"/>
				<polygon fill="#886065" points="4865.063,1220.638 4908.561,1393.129 5012.056,1210.139 				"/>
				<polygon fill="#E7AFA8" points="4482.583,1000.149 4355.088,1081.145 4908.561,1393.129 4865.063,1220.638 				"/>
				<polygon fill="#D59F98" points="4482.583,1000.149 4461.583,896.654 4355.088,1081.145 				"/>
				<polyline fill="#977E74" points="5012.056,1210.139 5051,1226.639 5036.055,1242.24 5072.053,1265.636 5060.053,1289.635 
					5096.051,1310.633 5034.555,1415.628 4995.557,1393.129 4983.557,1415.628 4947.559,1393.129 4938.559,1415.628 
					4908.561,1393.129 				"/>
				<path fill="none" d="M5006,1301.634"/>
				<polygon fill="#89797B" points="4461.583,896.654 4429,875 4418.834,896.654 4390,875 4376.5,896.654 4338,875 4258,1020 
					4332,1052 4325,1065 4355.088,1081.145 				"/>
				<polygon fill="#9A686B" points="4688,650 4736.819,820 4839,637 				"/>
				<polygon fill="#CC9C9A" points="4688,650 4301,440 4185,521 4736.819,820 				"/>
				<polygon fill="#845D63" points="4301,440 4287,340 4839,637 4688,650 				"/>
				<polygon fill="#B17B7D" points="4301,440 4287,340 4185,521 				"/>
				<polygon fill="#B1A6B0" points="4736.819,820 4763.5,838 4775,820 4811,838 4820,820 4859,838 4917,728.5 4882,711 4891,688 
					4857,670 4868,650 4839,637 				"/>
				<polygon fill="#725C65" points="4287,340 4258,322 4249,340 4220,322 4208,345 4172,322 4092,459 4167,495 4160,506 4185,521 
									"/>
				<polygon fill="#A66B6F" points="5688.525,404.68 5720.023,587.672 6140.754,68.697 5984.011,37.198 				"/>
				<polygon fill="#D29E9F" points="5688.525,404.68 5555.032,461.677 5720.023,587.672 				"/>
				<polygon fill="#E9AFAC" points="5688.525,404.68 5984.011,37.198 5984.011,7.2 5914.64,7.2 5555.032,461.677 				"/>
				<polygon fill="#574955" points="5555.032,461.677 5529.534,495 5542.284,503.675 5517.534,542.673 5536.284,562.172 
					5490.536,616.924 5615.032,718.175 5720.023,587.672 				"/>
				<polygon fill="#E5AAA4" points="5038,110 5108,121 5061,234.438 				"/>
				<polygon fill="#C59790" points="5038,110 5225,65 5177,110 5108,121 				"/>
				<polygon fill="#795961" points="5225,65 5248,191 5177,110 				"/>
				<polygon fill="#AB7875" points="5248,191 5061,234.438 5108,121 5177,110 				"/>
				<polygon fill="#C69595" points="5044.811,146.85 4870,191 4928,213 5051,180.335 				"/>
				<polygon fill="#DFA9A2" points="4870,191 4889,294 4928,213 				"/>
				<polygon fill="#B4817F" points="4928,213 4889,294 5061,253.5 5051,180.335 				"/>
				<polygon fill="#B5847E" points="5238.348,138.119 5231.088,98.349 5398,65 5360,110 				"/>
				<polygon fill="#A2716F" points="5398,65 5420,172.219 5360,110 				"/>
				<polygon fill="#C2928E" points="5420,172.219 5248,213 5238.348,138.119 5360,110 				"/>
				<polygon fill="#626064" points="5433.954,1141.369 5598.311,1124.814 5589.53,1135.141 5602.281,1145.64 5582.344,1172.98 
					5567,1159 5442,1185 5424.487,1180.573 5415,1139 				"/>
				<polygon fill="#3A435E" points="5197,1193 5215,1193 5226,1226.639 5096.051,1256 5072.053,1265.636 5041,1242.24 
					5071,1220.638 				"/>
				<polygon fill="#28304A" points="5111.756,700.215 5073,712 4917,629 4885.027,684.838 4891,688 4882,711 4908.561,724.28 
					4934,681 5066,746 5117.385,732.76 				"/>
				<polygon fill="#78737C" points="5353.28,648.947 5360.594,687.5 5410,676 5517.534,542.673 5534.668,515.673 5502,496.176 
					5393,638 				"/>
				<polygon fill="#FBF6F8" points="4875.372,220.116 4764,247 4791,419 5047,340 5042,319.558 5289,265 5298,300 5545,242.5 
					5518,75 5404.502,96.692 5420,172.219 5248,213 5245.247,191.64 5058.395,234.438 5061,253.5 4889,294 				"/>
				<polygon fill="#89778D" points="4502,260 4535,278 4575,269 4606,242.5 				"/>
				<polygon fill="#796983" points="4606,242.5 4614,289 4575,269 				"/>
				<polygon fill="#998CA6" points="4614,289 4614,294 4517,322 4535,278 4575,269 				"/>
				<polygon fill="#A697B1" points="4502,260 4535,278 4517,322 				"/>
				<polygon fill="#2E393C" points="4517,322 4507,322 4512,346 4625,322 4614,260 4609.011,260 4614,294 				"/>
			</g>
		</g>
		<g id="MLT">
			<g>
				<polygon fill="#9B6363" points="3458.136,1393.129 3894.615,1633.116 4058.106,1588.119 3414.639,1235.636 				"/>
				<polygon fill="#865451" points="3894.615,1633.116 3939.612,1813.107 4058.106,1588.119 				"/>
				<polygon fill="#B17978" points="3414.639,1235.636 3294.645,1456.125 3458.136,1393.129 				"/>
				<polygon fill="#BC7D78" points="3458.136,1393.129 3294.645,1456.125 3939.612,1813.107 3894.615,1633.116 				"/>
				<polygon fill="#F5BCA3" points="3569.706,1608.368 3554.132,1633.116 3629.127,1676.614 3644.15,1649.573 				"/>
			</g>
		</g>
		<g id="Physics">
			<polygon fill="#D49E9A" points="2795,1538 2689,1603.118 2856,1702 			"/>
			<g>
				<polygon fill="#8D6569" points="4167.601,2230.084 4230.598,2384.576 4340.092,2189.586 				"/>
				<polygon fill="#996D72" points="4340.092,2189.586 3983.11,1979.596 3929.113,2035.093 3878.115,2059.092 4167.601,2230.084 
									"/>
				<polygon fill="#C18C88" points="4167.601,2230.084 3878.115,2059.092 3878.115,2080.091 3885.615,2104.84 3870.616,2180.586 
					4230.598,2384.576 				"/>
				<polygon fill="#79717E" points="3870.616,2180.586 3854.117,2167.086 3834.618,2198.585 4253.847,2435.572 4322.092,2314.079 
					4283.323,2290.682 4230.598,2384.576 				"/>
				<polygon fill="#B0ADBE" points="4283.323,2290.682 4358.09,2338.078 4491.584,2090.59 4412.088,2044.092 				"/>
				<polygon fill="#FEFBFD" points="4365.172,2133.938 3945.612,1900.1 3935.113,1913.599 3980.11,1940.598 3965.111,1970.596 
					4340.092,2181.968 				"/>
				<polygon fill="#A86E65" points="3980.11,1940.598 3939.612,1952.599 3815.119,2181.968 3822.618,2221.834 				"/>
				<polygon fill="#A26B67" points="3980.11,1940.598 3851.117,1870.104 3863.116,1905.351 3939.612,1952.599 				"/>
				<path fill="#A26B67" d="M3247,1930"/>
				<polygon fill="#473544" points="3863.116,1905.351 3884,1974 3939.612,1952.599 				"/>
				<polygon fill="#34273B" points="3939.612,1952.599 3884,1974 3799,2128 3815.119,2181.968 				"/>
				<polygon fill="#DA9D95" points="3884,1974 3851.117,1870.104 3799,1959 3811,1994 3809,2018 3799,2032 3753,2041.034 3698,2147 
					3799,2128 				"/>
				<polygon fill="#DBA098" points="3799,2128 3822.618,2221.834 3698,2147 				"/>
				<polygon fill="#B37D7B" points="3834.618,1898.246 3617.127,1777 3653,1930 3809,2018 3811,1994 3799,1959 				"/>
				<polygon fill="#C58B85" points="3617.127,1777 3586,1823 3617.127,1940.598 3653,1930 				"/>
				<polygon fill="#B7807D" points="3809,2018 3799,2032 3753,2041.034 3725.874,2093.298 3288,1853 3247,1736 3617.127,1940.598 
					3653,1930 				"/>
				<polygon fill="#704043" points="3247,1736 3288,1853 3262,1897.5 3209,1747 				"/>
				<polygon fill="#AC7873" points="3209,1747 3262,1897.5 2919,1702 3043,1655 				"/>
				<polygon fill="#885F64" points="3617.127,1940.598 3586,1823 3023,1510 3043,1655 3209,1747 3247,1736 				"/>
				<polygon fill="#CC9089" points="3043,1655 3023,1510 2919,1702 				"/>
				<path fill="#CC9089" d="M2919,1543"/>
				<polygon fill="#847F8C" points="3725.874,2093.298 3288,1853 3272.06,1880.282 3709.739,2124.384 				"/>
				<polygon fill="#1B1F36" points="3617.127,1777 3083,1481 3055.343,1527.98 3586,1816.75 				"/>
				<polygon fill="#552F3C" points="2930,1587 2954.161,1637.087 2987,1576.459 				"/>
				<polygon fill="#8C6569" points="2987,1576.459 2924,1538 2930,1587 				"/>
				<polygon fill="#CA9089" points="2924,1538 2930,1587 2892,1603.118 				"/>
				<polygon fill="#B9817D" points="2930,1587 2954.161,1637.087 2892,1603.118 				"/>
				<polygon fill="#8B5454" points="2856,1702 2911,1613.501 2892,1603.118 2924,1538 2940.388,1548.003 3055.343,1336 2992,1163 
					2795,1538 				"/>
				<polygon fill="#C08380" points="2689,1603.118 2795,1538 2992,1163 2885,1224 				"/>
				<polygon fill="#C78D8C" points="2992,1163 2885,1224 2850,1200 2975,1128 3181,1242 3249,1444 3055.343,1336 				"/>
				<polygon fill="#C58D89" points="2975,1128 2850,1200 2951,970 				"/>
				<polygon fill="#A46C6C" points="2951,970 3376.391,1204 3181,1242 2975,1128 				"/>
				<polygon fill="#975A58" points="3376.391,1204 3181,1242 3249,1444 				"/>
			</g>
		</g>
		<g id="Dean_Office">
			<polygon fill="#FEFAFA" points="4147.454,2375.429 4124,2418 4167.601,2441 4186.763,2397.65 			"/>
			<g>
				<polygon fill="#AEA6B2" points="4127.913,2420.063 3877,2877 3907,2897 4161,2441 				"/>
				<polygon fill="#F0E4E7" points="3906,2908 4014,2969 4230.598,2574 4124,2507.426 				"/>
			</g>
		</g>
		<g id="Chemistry_Department">
			<polygon fill="#BE8E8C" points="2712,2457 2662,2295 2559,2487 			"/>
			<g>
				<polygon fill="#EA8291" points="3291.644,3508.025 3471.635,3476.528 3645.625,3578.521 3683.125,3740.515 				"/>
				<polygon fill="#D6938F" points="3291.644,3508.025 3431.137,3265.038 3471.635,3476.528 				"/>
				<polygon fill="#BD5B6A" points="3431.137,3265.038 3471.635,3476.528 3645.625,3578.521 3813.618,3488.527 				"/>
				<polygon fill="#B25167" points="3813.618,3488.527 3645.625,3578.521 3683.125,3740.515 				"/>
				<polygon fill="#90656A" points="3776.12,3140.545 3804.618,3274.038 3921.612,3079.048 				"/>
				<polygon fill="#865F6A" points="3776.12,3140.545 3921.612,3079.048 3350.141,2758.064 3317.143,2810.563 3284.145,2818.063 
					3257.146,2836.061 				"/>
				<polygon fill="#BE8583" points="3257.146,2836.061 3257.146,2866.061 3276.645,2897 3266.896,2949.305 3804.618,3274.038 
					3776.12,3140.545 				"/>
				<polygon fill="#918DA0" points="3789.715,3265.038 3713.124,3395.533 3804.618,3451.03 3935.112,3200.543 3869.334,3166.176 
					3804.618,3274.038 				"/>
				<polygon fill="#BDB7C0" points="3871.982,3161.766 3906,3185.332 3972.61,3071.549 3369.64,2710.066 3350.141,2758.064 
					3921.612,3071.549 				"/>
				<polygon fill="#886770" points="3789.715,3265.038 3246.646,2947.699 3225.647,2983.054 3766.402,3304.758 				"/>
				<polyline fill="#A46C6C" points="3368,2706 3329,2720 3284.145,2818.063 3317.143,2810.563 3369.64,2710.066 				"/>
				<polygon fill="#995F5B" points="3257.146,2866.061 3207,2947.699 3220,2977 3272.902,2891.063 				"/>
				<polygon fill="#2C2233" points="3329,2720 3272.902,2744 3186,2896 3207,2942 3257.146,2866.061 3257.146,2836.061 
					3284.145,2818.063 				"/>
				<polygon fill="#82524E" points="3245,2636 3257.146,2675 3329,2720 3362,2706 				"/>
				<polygon fill="#483848" points="3257.146,2675 3272.902,2744 3329,2720 				"/>
				<polygon fill="#CD9790" points="3245,2636 3272.902,2744 3186,2896 3095,2908 3145,2810 3171,2813 3194,2801 3196,2772 
					3186,2740 				"/>
				<polygon fill="#B47D79" points="3225.647,2983.054 3095,2908 3186,2896 				"/>
				<polygon fill="#8C5F69" points="3194,2801 3196,2772 3186,2740 3225.647,2670.113 2937,2507 2813,2541 3031,2668 3043,2710.066 
									"/>
				<polygon fill="#C9928B" points="3194,2801 3043,2710.066 2907,2749 3114.101,2870.563 3145,2810 3171,2813 				"/>
				<polygon fill="#B17F7C" points="3043,2710.066 3031,2668 2930,2698 2907,2749 				"/>
				<polygon fill="#AF7A7C" points="3027.021,2665.682 2813,2541 2801,2507 2712,2457 2559,2487 2930,2698 				"/>
				<polygon fill="#A67075" points="2801,2507 2813,2541 2941,2507 2959,2463 				"/>
				<polygon fill="#966468" points="2959,2457 2662,2295 2712,2457 2801,2507 				"/>
				<polygon fill="#A28D94" points="2559,2487 2544,2514 2793.01,2658 2786,2668 2911.424,2739.191 2930,2698 				"/>
				<polygon fill="#A28D94" points="2951.481,2481.379 2941,2507 3221.908,2668 3237.902,2648.512 				"/>
				<polygon fill="#9698AC" points="2849.841,2397.459 3158.44,1838.474 3113.936,1813.107 2806.961,2374.07 				"/>
				<polygon fill="#9B97A6" points="3063.5,1905.273 2998,1866 2786,2258 2848.223,2298.67 				"/>
			</g>
		</g>
		<g id="CS_Department">
			<g>
				<polygon fill="#A46163" points="3442,3222 3252,3494 3216,3333 3239.951,3326 3286,3265.038 				"/>
				<polygon fill="#9A5A59" points="3442,3222 3257.5,3084 3286,3265.038 				"/>
				<polygon fill="#BC827F" points="3257.5,3084 3220,3140.545 3244.308,3320.232 3286,3265.038 				"/>
				<polygon fill="#8C585A" points="3220,3140.545 3129,3075 2963,3116 2963,3146 3216,3333 3244.308,3320.232 				"/>
				<polygon fill="#D4948C" points="2963,3146 2782,3146 3252,3494 3216,3333 				"/>
				<polygon fill="#744A55" points="2782,3146 2963,3146 2963,3116 3003,3055.049 2985,2881 				"/>
				<polygon fill="#875558" points="2963,3116 3129,3075 3166,3018 3003,3055.049 				"/>
				<polygon fill="#733F42" points="3166,3018 2985,2881 3003,3055.049 				"/>
			</g>
		</g>
		<g id="Library">
			<g>
				<polygon fill="#8B4F50" points="1995,2391 2035,2574.689 2341,2749 2506,2681 				"/>
				<polygon fill="#C58A86" points="1995,2391 1888,2601 2035,2574.689 				"/>
				<polygon fill="#DA9995" points="1888,2601 2035,2574.689 2341,2749 2388,2902 				"/>
				<polygon fill="#834A4A" points="2341,2749 2506,2681 2388,2902 				"/>
			</g>
		</g>
		<g id="Bio_Department">
			<polygon fill="#545B76" points="2692,2710.066 2712,2784 2765,2673 			"/>
			<g>
				<polygon fill="#7C819A" points="2692,2710.066 2553,2629 2528,2530 2765,2673 				"/>
				<polygon fill="#B6B4C8" points="2692,2710.066 2712,2784 2465,2644 2553,2629 				"/>
				<polygon fill="#A19EAF" points="2553,2629 2528,2530 2465,2644 				"/>
				<polygon fill="#666279" points="2313,2397.459 2418,2457 2388,2522 2281,2463 				"/>
				<polygon fill="#C0BECB" points="2388,2522 2356,2570 2256,2507 2281,2463 				"/>
				<polygon fill="#A8B6CF" points="2418,2457 2528,2522 2498.543,2583.301 2388,2522 				"/>
				<polygon fill="#A8A8BA" points="2498.543,2583.301 2471.25,2632.689 2358.615,2566.077 2388,2522 				"/>
				<polygon fill="#9A9BAD" points="2412.5,2453.881 2294,2378 2379,2214 2498.543,2295 				"/>
				<polygon fill="#7B7E95" points="2412.5,2453.881 2528,2516.5 2613,2351 2498.543,2295 				"/>
				<polygon fill="#F9F2F6" points="2294,2378 2230,2496 2256,2507 2314.302,2391 				"/>
				<polygon fill="#7B737D" points="2272.151,2418.284 2250.5,2405.75 2281,2345 2305.726,2355.376 				"/>
				<polygon fill="#804C51" points="2281,2320.081 2230,2158.09 2390.19,2104.092 				"/>
				<polygon fill="#8C5B60" points="2230,2158.09 2390.19,2104.092 1314.744,1475.624 1361.241,1657.115 				"/>
				<polygon fill="#B67E7E" points="2281,2320.081 2230,2158.09 1361.241,1657.115 1218.749,1657.115 1533.732,1844.605 
					1533.732,1882.104 1613.229,1930.101 1622.228,1912.102 1649.227,1927.101 1644.727,1940.601 1779.72,2014.097 
					1785.72,2002.098 1817.218,2017.097 1809.719,2042.596 				"/>
				<polygon fill="#25182B" points="1361.241,1657.115 1314.744,1475.624 1218.749,1657.115 				"/>
				<polygon fill="#C5B2B4" points="1644.727,1940.601 1649.227,1927.101 1622.228,1912.102 1609.667,1935.667 1613.667,1940.601 
					1578.333,2005.001 1761,2111.667 1797,2047.667 1815.071,2045.747 1809.719,2042.596 1817.218,2017.097 1785.72,2002.098 
					1779.72,2014.097 				"/>
				<polygon fill="#915554" points="2103.665,1805.675 2137.665,1903.675 2234.333,1725.008 2134.333,1750.342 				"/>
				<polygon fill="#9B5E5F" points="2234.333,1725.008 2110.999,1657.115 2134.333,1750.342 				"/>
				<polygon fill="#B07873" points="2110.999,1657.115 2016.333,1835.675 2103.665,1805.675 2134.333,1750.342 				"/>
				<polygon fill="#BB857F" points="2016.333,1835.675 2137.665,1903.675 2103.665,1805.675 				"/>
				<polygon fill="#DCD3DC" points="2151.011,1964.321 2262.333,1746.395 2232.355,1728.66 2137.665,1903.675 2120.048,1893.802 
					2098.805,1933.813 				"/>
			</g>
		</g>
		<g id="Zoology_Department">
		</g>
		<g>
			<polygon fill="#A1635C" points="2390.19,1805.675 2512.75,1870.104 2795,1345.88 2673,1264.5 			"/>
			<polyline fill="#CA8F88" points="2673,1264.5 2559,1214.5 2278.113,1736 2390.19,1805.675 			"/>
			<polygon fill="#ABA6B7" points="2262.333,1866 2422,1957.5 2450,1911.75 2299,1816.857 			"/>
			<polyline fill="#B1ACBB" points="2262.333,1866 2240,1920.5 2402,2011.884 2422,1957.5 			"/>
			<polygon fill="#97909B" points="2469,1988.598 2428,2053.5 2642,2170.5 2673,2105.283 			"/>
			<polygon fill="#625967" points="2824,1964.321 2712,2187.5 2768,2221.5 2895,1998.5 			"/>
			<polygon fill="#848292" points="2819.114,1974.059 2759,1940.598 2673,2105.283 2735.467,2140.738 			"/>
			<polygon fill="#EBC4AE" points="2724,1207.5 2746,1292.5 2795,1189.5 			"/>
			<polygon fill="#EABFA9" points="2795,1189.5 2455,1000.5 2483,1085 2501,1085 2724,1207.5 			"/>
			<polygon fill="#FDDBC3" points="2501,1085 2521,1174.5 2746,1292.5 2724,1207.5 			"/>
			<polygon fill="#E9C3AA" points="2501,1085 2483,1085 2455,1146.5 2483,1248.5 2521,1174.5 			"/>
			<polygon fill="#F9DCC2" points="2483,1085 2455,1000.5 2361,1182.5 2455,1146.5 			"/>
			<polygon fill="#FDD9BF" points="2455,1146.5 2361,1182.5 2483,1248.5 			"/>
			<polygon fill="#3A5A91" points="2387,1085 2193,970 2133,1106 2322,1207.5 			"/>
		</g>
		<polygon fill="#7F85A0" points="4184.106,1676.614 4131.609,1725.299 4479.59,1914.649 4515.588,1858.799 		"/>
		<polygon fill="#BCBDD1" points="4131.609,1725.299 4109.104,1787.112 4437.592,1974 4479.59,1914.649 		"/>
		<text transform="matrix(1 0 0 1 3505.0005 1513.5)" font-family="'MyriadPro-Regular'" font-size="21">MLT</text>
		<text transform="matrix(1 0 0 1 4480.0005 1079.5)" font-family="'MyriadPro-Regular'" font-size="18">Wijewardana</text>
		<text transform="matrix(1 0 0 1 4480.0005 1101.0996)" font-family="'MyriadPro-Regular'" font-size="18">Holl</text>
		<text transform="matrix(1 0 0 1 3327.0005 1822.5)" font-family="'MyriadPro-Regular'" font-size="18">Physics</text>
		<text transform="matrix(1 0 0 1 3327.0005 1844.1001)" font-family="'MyriadPro-Regular'" font-size="18">Department</text>
		<text transform="matrix(1 0 0 1 4095.0005 2675.5)" font-family="'MyriadPro-Regular'" font-size="18">Dean</text>
		<text transform="matrix(1 0 0 1 4095.0005 2697.0996)" font-family="'MyriadPro-Regular'" font-size="18">Office</text>
		<text transform="matrix(1 0 0 1 3388.0005 2842.5)" font-family="'MyriadPro-Regular'" font-size="18">Chemistry</text>
		<text transform="matrix(1 0 0 1 3388.0005 2864.0996)" font-family="'MyriadPro-Regular'" font-size="18">Department</text>
		<text transform="matrix(1 0 0 1 2938.0005 3194.5)" font-family="'MyriadPro-Regular'" font-size="18">CS</text>
		<text transform="matrix(1 0 0 1 2938.0005 3216.0996)" font-family="'MyriadPro-Regular'" font-size="18">Department</text>
		<text transform="matrix(1 0 0 1 2015.0005 2624.5)" font-family="'MyriadPro-Regular'" font-size="18">Library</text>
		<text transform="matrix(1 0 0 1 1597.0005 1734.5)" font-family="'MyriadPro-Regular'" font-size="18">Bio</text>
		<text transform="matrix(1 0 0 1 1597.0005 1756.1001)" font-family="'MyriadPro-Regular'" font-size="18">Department</text>
		<text transform="matrix(1 0 0 1 2445.0005 1468.5)" font-family="'MyriadPro-Regular'" font-size="18">Zoology</text>
		<text transform="matrix(1 0 0 1 2445.0005 1490.1001)" font-family="'MyriadPro-Regular'" font-size="18">Department</text>
	</g>
	<g id="Layer_13">
	</g>
	<g id="Road">
		<g>
			<path fill="#3A3630" d="M8262.811,56.69c-14.689-14.688-36.752-13.194-51.619,0c-39.431,34.993-73.708,75.127-110.242,113.016
				c-18.287,18.966-37.316,37.214-57.689,53.937c-1.779,1.46-3.583,2.886-5.389,4.311c1.658-1.342-4.229,3.17-4.84,3.623
				c-5.334,3.942-10.824,7.667-16.188,11.568c-12.183,8.857-24.217,17.918-36.153,27.104
				c-46.185,35.543-90.539,73.215-133.547,112.535c-21.556,19.708-42.929,39.295-65.764,57.542c-2.743,2.19-5.506,4.356-8.268,6.523
				c-0.67,0.525-1.199,0.94-1.631,1.28c-0.488,0.373-1.16,0.887-2.082,1.592c-5.56,4.263-11.166,8.46-16.787,12.644
				c-12.152,9.042-24.455,17.881-36.803,26.653c-48.455,34.427-98.459,66.882-144.668,104.352
				c-43.109,34.957-82.521,74.181-124.963,109.916c-4.944,4.162-9.955,8.245-14.994,12.29c-0.465,0.373-4.463,3.508-5.013,3.962
				c-1.771,1.343-3.545,2.678-5.324,4.007c-11.866,8.864-24.283,16.944-36.138,25.836c-24.217,18.167-47.17,37.829-70.004,57.685
				c-10.389,9.033-20.803,18.036-31.354,26.879c-0.467,0.391-5.426,4.163-5.535,4.362c-1.582,1.063-3.181,2.105-4.785,3.135
				c-5.772,3.7-11.817,6.971-17.903,10.124c-5.345,2.771-10.815,5.296-16.301,7.775c-1.763,0.797-3.537,1.566-5.313,2.333
				c0.574-0.264-4.934,2.068-5.746,2.401c-12.505,5.131-25.107,10.019-37.59,15.205c-96.896,40.257-175.954,112.042-267.564,162.044
				c-11.34,6.189-22.891,11.986-34.566,17.512c-5.268,2.492-10.589,4.866-15.927,7.201c-0.416,0.157-5.97,2.527-6.349,2.683
				c-4.293,1.756-8.623,3.424-12.957,5.081c-26.914,10.291-54.469,18.865-82.313,26.245c-27.806,7.369-55.996,13.23-84.336,18.12
				c-6.815,1.176-13.646,2.256-20.481,3.306c-3.42,0.525-6.846,1.021-10.271,1.518c-0.453,0.064-4.99,0.687-6.446,0.892
				c-14.098,1.843-28.229,3.412-42.377,4.816c-72.033,7.146-144.469,8.841-216.836,9.208c1.209-1.605,2.42-3.207,3.638-4.806
				c0.257-0.337,0.726-0.945,1.228-1.597c3.354-4.309,6.742-8.591,10.146-12.862c28.588-35.885,58.288-70.836,86.124-107.324
				c25.278-33.139,49.005-68.018,65.63-106.391c4.089-9.438,6.525-17.777,3.68-28.125c-2.51-9.124-8.613-17.034-16.773-21.813
				c-15.598-9.138-42.023-5.175-49.938,13.094c-16.642,38.409-40.414,73.169-65.631,106.391c-0.438,0.576-1.641,2.142-2.479,3.235
				c-1.019,1.306-2.034,2.613-3.056,3.917c-3.25,4.15-6.533,8.273-9.824,12.393c-7.135,8.93-14.36,17.784-21.6,26.63
				c-13.698,16.742-27.471,33.424-40.923,50.364c-29.758,37.475-58.071,76.141-86.886,114.34
				c-14.383,19.066-28.801,38.104-43.33,57.057c-1.744,2.273-3.49,4.545-5.236,6.815c-0.35,0.453-1.514,1.961-2.424,3.144
				c-3.125,4.037-6.258,8.07-9.396,12.1c-7.604,9.757-15.265,19.469-22.972,29.145c-29.082,36.511-59.735,71.696-89.185,107.904
				c-30.676,37.719-60.354,76.27-89.234,115.376c-43.096,58.354-84.135,118.208-123.549,179.108
				c-0.896-16.42-4.62-32.899-9.764-48.237c-8.054-24.011-19.547-46.981-32.938-68.438c-25.762-41.28-58.354-79.434-94.904-111.552
				c-17.705-15.558-36.99-28.974-56.254-42.486c-21.943-15.394-44.023-30.601-66.746-44.83
				c-23.539-14.743-47.836-28.354-73.194-39.72c-26.956-12.083-54.714-22.397-83.901-27.476
				c-15.478-2.691-31.215-4.495-46.938-4.461c-15.965,0.034-31.905,2.411-47.56,5.397c-26.707,5.094-52.5,14.488-76.787,26.64
				c-42.691,21.36-78.471,54.736-110.457,89.637c-33.426,36.474-65.164,74.446-98.687,110.842
				c-35.371,38.4-71.185,77.424-97.396,122.884c-28.102,48.737-43.103,103.965-45.142,160.099
				c-0.411,11.309-0.121,22.591,0.83,33.791c-122.285-126.379-273.378-220.799-423.337-310.868
				c-39.889-23.958-80.499-46.896-119.428-72.395c-38.051-24.922-74.723-51.872-113.123-76.271
				c-39.969-25.396-82.043-44.131-125.308-63.013c-45.965-20.063-92.106-42.898-140.962-55.091
				c-47.656-11.895-97.479-11.128-145.665-19.862c-39.608-7.179-70.94-23.963-100.599-48.603
				c-35.842-29.775-70.971-55.083-113.896-73.785c-43.339-18.881-86.505-34.412-126.593-59.939
				c-78.399-49.924-145-116.063-223.213-166.376c-82.138-52.836-175.103-87.209-263.937-126.752
				c-37.292-16.6-69.099-32.036-95.139-63.061c-16.738-19.942-32.354-54.988-45.174-82.437
				c-16.236-34.763-33.947-69.365-58.744-98.942c-20.15-24.035-45.508-43.542-72.484-59.359
				c-59.625-34.963-129.233-51.858-196.959-62.123c-72.48-10.984-145.737-14.574-218.977-14.892
				c-49.133-0.213-98.223,1.503-147.342,1.044c-36.212-0.339-69.878,11.023-88.379,43.902c-2.61,4.639-4.648,9.641-6.859,14.475
				c-1.104,2.418-2.274,4.803-3.512,7.155c-0.066,0.133-1.511,2.071-2.706,3.754c-2.231,0.523-4.407,1.084-2.788,0.971
				c-6.344,0.65-12.789,0.433-19.137,0.16c-23.956-1.029-49.957-8.508-74.765-14.898c-33.52-8.633-66.655-18.713-99.973-28.087
				C1838.344,412.935,1766.599,398.389,1693,398c-6.087-0.032-11.379,1.167-15.891,3.268c-21.027-4.988-43.437-4.762-64.813-3.283
				c-33.784,2.337-67.269,8.118-100.783,12.783c-1.137,0.146-2.273,0.294-3.41,0.438c-3.246,0.41-6.495,0.785-9.747,1.141
				c-6.31,0.691-12.637,1.226-18.978,1.512c-8.386,0.379-16.76-0.5-25.104-1.26c-5.272-0.48-10.536-1.079-15.793-1.713
				c-0.483-0.059-1.396-0.179-2.347-0.306c-2.901-0.414-5.799-0.852-8.696-1.3c-42.354-6.551-83.938-17.187-125.921-25.657
				c-64.305-12.973-129.039-21.971-194.604-25.221c-68.385-3.391-137.8-1.581-205.211,11.251
				c-66.941,12.743-125.227,46.81-178.514,88.223c-54.473,42.334-100.69,93.906-142.907,148.215
				c-44.214,56.88-84.541,116.539-126.542,175.034c-10.036,13.977-20.204,27.859-30.558,41.602
				c-2.469,3.278-4.957,6.542-7.451,9.802c-0.118,0.152-0.259,0.337-0.412,0.536c-0.882,1.134-1.763,2.268-2.647,3.399
				c-5.432,6.953-10.946,13.84-16.524,20.676c-23.404,28.683-47.567,56.749-70.288,85.986
				c-23.199,29.854-45.318,60.538-61.637,94.785c-17.832,37.422-28.225,76.397-31.114,117.782
				c-2.286,32.74-1.058,66.188-0.898,99.001c0.17,34.891,1.268,69.812,4.81,104.538c6.243,61.203,18.557,127.389,56.462,177.69
				c5.992,7.952,11.825,14.026,21.813,16.774c3.93,1.081,8.008,1.469,12.039,1.208c3.069,6.396,6.201,12.764,9.485,19.056
				c5.156,9.878,10.896,19.426,17.063,28.703c3.482,5.243,7.207,10.322,10.988,15.351c3.233,4.298,6.56,8.526,9.871,12.764
				c0.672,0.859,6.854,8.728,6.122,7.696c32.41,42.967,55.379,92.408,77.056,141.39c39.366,88.958,76.978,185.344,145.334,256.713
				c71.346,74.49,161.372,129.565,252.602,176.19c45.92,23.469,92.859,44.886,139.915,65.959
				c46.053,20.623,93.057,39.856,137.992,62.851c50.354,25.767,96.849,58.354,143.72,89.815
				c47.799,32.086,96.272,61.521,148.7,85.453c54.488,24.875,109.305,49.03,163.34,74.886
				c55.656,26.63,108.629,58.885,166.55,80.399c24.345,9.043,49.167,16.753,73.839,24.836c13.535,4.436,26.911,9.402,40.48,13.715
				c3.043,0.968,6.033,2.099,9.018,3.229c0.225,0.085,0.422,0.159,0.62,0.232c0.474,0.23,1.153,0.551,2.119,0.993
				c5.544,2.541,10.901,5.476,16.194,8.499c9.633,5.506,18.768,11.864,27.733,18.383c4.42,3.213,8.765,6.529,13.101,9.855
				c1.332,1.025,3.748,2.886,4.16,3.205c4.134,3.201,8.272,6.396,12.411,9.59c21.072,16.268,42.92,31.555,65.578,45.537
				c22.103,13.641,45.245,25.553,69.144,35.711c14.468,6.149,29.153,11.363,43.838,16.921c2.887,1.093,5.752,2.241,8.617,3.393
				c0.171,0.069,0.317,0.127,0.471,0.188c0.371,0.165,0.828,0.367,1.396,0.615c4.794,2.101,9.506,4.38,14.175,6.744
				c8.212,4.157,16.098,8.927,23.665,14.161c0.765,0.527,1.519,1.071,2.27,1.618c0.808,0.618,1.739,1.337,2.273,1.774
				c3.339,2.73,6.548,5.621,9.72,8.544c14.258,13.136,27.121,27.784,40.175,42.105c-8.532,16.07-19.048,31.08-30.056,45.563
				c-16.707,21.354-34.409,41.903-51.232,63.163c-10.043,12.69-19.938,25.535-29.046,38.92
				c-8.012,11.771-14.764,24.27-21.803,36.632c-31.188,54.777-63.63,108.884-98.845,161.183c-2.847,4.228-5.719,8.438-8.604,12.64
				c-2.059,2.998-3.463,6.251-4.297,9.62c-66.879,97.315-122.021,202.25-190.573,298.488c-4.354,6.112-8.774,12.179-13.242,18.209
				c-2.229,3.01-4.479,6.002-6.737,8.987c-1.07,1.414-2.147,2.823-3.225,4.232c-0.062,0.079-0.115,0.147-0.182,0.232
				c-9.531,12.235-19.382,24.222-29.527,35.953c-20.154,23.306-41.712,45.403-64.765,65.854
				c-5.526,4.902-11.165,9.679-16.871,14.371c-2.851,2.345-5.734,4.646-8.629,6.935c-1.463,1.113-2.928,2.226-4.4,3.325
				c-12.451,9.31-25.345,18.017-38.569,26.188c-30.071,18.579-61.328,35.465-91.961,53.105
				c-33.114,19.068-66.401,37.854-100.363,55.377c-16.79,8.663-33.772,16.953-50.966,24.781c-4.054,1.847-8.125,3.647-12.205,5.434
				c-1.537,0.673-3.08,1.332-4.622,1.993c-0.33,0.139-0.627,0.264-0.859,0.36c-8.667,3.596-17.415,6.991-26.22,10.23
				c-36.312,13.355-74.597,21.066-112.378,29.041c-38.01,8.021-76.134,15.553-113.731,25.384
				c-36.586,9.566-71.491,22.875-106.788,36.25c-27.955,10.595-55.838,21.563-82.932,34.224
				c-45.273,21.157-87.158,50.158-118.745,89.256c-23.316,28.86-41.823,60.453-57.212,94.166c-4.238,9.285-6.486,17.922-3.68,28.125
				c2.51,9.123,8.615,17.035,16.773,21.813c15.851,9.285,41.677,5.008,49.939-13.095c12.111-26.531,25.993-52.289,43.174-75.908
				c0.654-0.899,1.323-1.789,1.989-2.679c1.45-1.817,2.919-3.618,4.407-5.401c4.023-4.824,8.247-9.48,12.595-14.015
				c7.756-8.086,16.095-15.599,24.827-22.616c0.435-0.323,0.866-0.65,1.301-0.973c2.219-1.643,4.475-3.233,6.74-4.811
				c4.945-3.439,10.021-6.688,15.161-9.83c10.206-6.238,20.779-11.859,31.51-17.137c5.397-2.655,10.854-5.188,16.336-7.666
				c2.819-1.272,5.651-2.517,8.486-3.752c1.104-0.479,2.211-0.953,3.316-1.429c12.826-5.345,25.778-10.386,38.756-15.349
				c34.52-13.199,68.738-26.532,104.419-36.362c37.453-10.318,75.582-17.945,113.59-25.884
				c38.018-7.938,76.791-15.316,113.534-28.097c37.074-12.894,73.031-29.231,108.099-46.807
				c66.457-33.306,130.658-71.49,194.869-108.892c55.528-32.345,104.936-75.17,147.876-122.78
				c85.989-95.343,148.311-208.511,215.844-316.876c19.589-31.434,39.728-62.538,61.171-92.742
				c2.337-3.291,3.834-6.915,4.624-10.675c22.647-33.913,44.157-68.573,64.949-103.654c22.001-37.121,41.618-75.637,67.659-110.134
				c17.625-22.435,36.311-44.014,53.853-66.516c10.532-13.51,20.907-27.133,30.181-41.548c5.092-7.916,9.566-16.059,13.635-24.421
				c11.266,9.292,22.265,18.91,33.223,28.557c32.852,28.918,65.699,58.197,102.586,81.968
				c19.644,12.657,40.874,22.757,61.771,33.142c22.009,10.938,44.171,21.563,66.279,32.299
				c44.349,21.532,87.677,44.551,130.825,68.369c38.515,21.262,75.722,44.84,111.977,69.738
				c18.284,12.559,36.287,25.522,54.106,38.729c8.588,6.364,17.116,12.812,25.612,19.3c2.084,1.593,4.166,3.191,6.246,4.792
				c0.316,0.247,0.711,0.553,1.211,0.94c4.942,3.834,9.866,7.692,14.781,11.562c70.473,55.446,138.269,114.183,206.904,171.856
				c67.925,57.074,136.678,112.909,210.24,162.623c69.029,46.647,140.246,89.968,209.176,136.77
				c21.299,14.461,42.346,29.293,63.04,44.609c5.32,3.938,10.604,7.923,15.87,11.933c0.922,0.704,1.842,1.409,2.762,2.115
				c2.497,1.938,4.982,3.894,7.465,5.851c10.35,8.163,20.543,16.521,30.605,25.035c39.512,33.426,76.441,69.957,109.094,110.146
				c4.488,5.523,10.703,8.746,17.428,10.028c-15.832,31.975-27.963,65.994-35.991,100.538
				c-7.862,33.827-12.067,68.891-12.126,103.624c-0.034,19.897,16.629,36.5,36.5,36.5c19.923,0,36.466-16.604,36.5-36.5
				c0.027-16.685,1.078-33.335,3.082-49.894c5.096-34.576,14.379-68.432,27.572-100.793c12.953-29.649,29.178-57.795,48.638-83.655
				c16.907-21.24,36.004-40.662,57.229-57.602c18.679-13.955,38.772-25.888,60.088-35.345c20.157-8.069,41.125-13.846,62.583-17.166
				c22.344-2.561,44.868-2.443,67.208,0.133c2.03,0.309,4.056,0.635,6.079,0.979c-3.118,32.311,3.227,63.909,8.141,95.995
				c0.158,1.027,0.278,1.803,0.371,2.378c0.054,0.446,0.117,0.956,0.192,1.567c0.567,4.552,0.967,9.118,1.317,13.689
				c0.61,7.934,0.645,15.938,0.822,23.89c0.333,14.813-0.459,29.629-2.09,44.349c-0.087,0.439-0.725,5.236-0.87,6.16
				c-0.635,3.992-1.399,7.963-2.183,11.93c-1.354,6.865-3.017,13.666-4.791,20.433c-3.539,13.491-8.037,26.718-12.979,39.752
				c-1.069,2.821-2.194,5.622-3.315,8.422c-0.418,1.033-0.849,2.063-1.272,3.095c-0.202,0.463-0.519,1.197-0.958,2.217
				c-2.879,6.633-5.926,13.192-9.018,19.729c-6.918,14.621-14.342,28.999-21.862,43.316c-9.253,17.615-4.634,39.554,13.094,49.938
				c16.573,9.708,40.696,4.502,49.938-13.096c24.838-47.278,48.502-96.135,60.312-148.508c6.218-27.578,9.149-56.135,9.04-84.389
				c-0.119-30.877-4.911-60.938-9.662-91.367c-0.083-0.53-0.676-4.784-0.896-6.264c-0.289-2.465-0.549-4.934-0.791-7.402
				c-0.64-6.549-0.863-13.118-0.836-19.694c0.013-3.242,0.242-6.477,0.481-9.707c0.019-0.259,0.035-0.486,0.051-0.711
				c0.121-0.534,0.276-1.293,0.479-2.363c0.537-2.854,1.324-5.657,2.082-8.457c0.326-1.205,1.651-4.462,2.203-5.865
				c4.236-8.528,9.674-16.501,15.17-24.23c1.688-2.374,3.441-4.703,5.189-7.034c0.078-0.104,0.143-0.188,0.213-0.285
				c0.309-0.386,0.734-0.922,1.305-1.645c4.222-5.354,8.549-10.623,12.865-15.899c37.264-45.559,71.297-93.897,106.063-141.37
				c36.188-49.414,72.198-98.957,108.627-148.191c36.845-49.793,72.419-96.9,107.966-142.02
				c75.008-95.201,147.066-193.567,209.813-297.365c6.66-11.018,13.854-21.705,21.293-32.207
				c3.699-5.223,7.526-10.356,11.388-15.462c0.185-0.243,0.351-0.463,0.506-0.669c0.347-0.436,0.862-1.086,1.617-2.047
				c2.632-3.349,5.313-6.655,8.003-9.957c16.813-20.655,34.751-40.377,52.93-59.83c36.608-39.174,74.514-77.156,108.707-118.515
				c35.356-42.764,69.975-86.064,104.403-129.583c34.685-43.84,70.006-87.304,109.162-127.268
				c38.658-39.455,83.261-72.221,125.574-107.532c34.522-28.812,69.763-60.163,95.659-97.587c0.466-0.385,0.925-0.779,1.377-1.188
				c33.637-30.281,61.83-65.478,89.154-101.397c12.187-16.021,24.129-32.224,36.367-48.204c0.662-0.859,1.358-1.761,1.699-2.197
				c1.541-1.975,3.094-3.938,4.646-5.9c3.113-3.937,6.273-7.834,9.455-11.717c6.941-8.473,14.109-16.757,21.473-24.865
				c14.604-16.085,30.763-30.414,46.367-45.482c15.584-15.046,30.478-30.797,44.844-47.004
				c30.008-33.852,57.478-70.042,83.199-107.231c1.818-2.63,3.603-5.28,5.398-7.923c-3.801,17.414,6.8,40.236,25.883,43.312
				c3.822,0.616,7.537,1.546,11.186,2.745c1.582,0.719,3.926,1.78,5.133,2.439c3.078,1.679,6.021,3.598,8.908,5.582
				c0.367,0.252,0.727,0.516,1.088,0.774c0.086,0.069,0.168,0.136,0.246,0.2c2.522,2.082,4.938,4.292,7.318,6.533
				c5.457,5.133,10.497,10.697,15.333,16.414c0.953,1.125,3.414,4.256,4.72,5.905c1.395,1.895,2.772,3.8,4.131,5.72
				c4.834,6.828,9.354,13.877,13.721,21.013c8.678,14.185,16.473,28.903,23.783,43.834c3.5,7.146,6.838,14.372,10.091,21.633
				c1.507,3.363,2.976,6.743,4.431,10.128c0.836,2.009,1.664,4.021,2.484,6.035c5.54,13.597,10.686,27.354,15.516,41.219
				c4.041,11.602,7.183,23.569,11.437,35.079c8.515,23.046,16.528,46.276,24.003,69.68c14.963,46.847,27.378,94.552,35.9,143.001
				c1.013,5.751,1.937,11.518,2.826,17.288c0.444,2.877,0.857,5.761,1.271,8.643c0.021,0.144,0.037,0.262,0.057,0.394
				c0.049,0.394,0.108,0.857,0.182,1.424c1.591,12.42,2.8,24.888,3.736,37.373c1.846,24.562,1.662,49.138,1.774,73.748
				c0.468,102.096,3.532,204.156,4.313,306.248c0.78,101.907-0.988,203.895-9.528,305.487c-1.042,12.397-2.211,24.784-3.461,37.162
				c-0.628,6.22-1.296,12.435-1.979,18.646c-0.342,3.114-0.697,6.228-1.054,9.341c-0.138,1.129-0.233,1.949-0.293,2.468
				c-0.112,0.777-0.222,1.558-0.338,2.333c-3.521,23.794-9.083,47.258-15.541,70.411c-13.062,46.823-30.552,92.272-46.808,138.041
				c-2.109,5.938-4.191,11.888-6.244,17.846c-8.889,4.489-15.983,12.239-17.834,22.314c-7.444,40.534-19.906,79.923-35.619,117.979
				c-36.813,85.467-88.767,163.715-145.486,237.154c1.902-2.462,3.805-4.925,5.707-7.387
				c-25.23,32.603-48.716,66.082-70.922,100.813c-10.346,16.181-20.521,32.466-30.8,48.688
				c-9.345,14.751-18.365,30.02-28.744,44.105c-45.278,55.871-113.84,90.584-150.456,153.924
				c-9.961,17.231-4.118,39.855,13.096,49.938c17.1,10.017,39.996,4.104,49.938-13.095c2.918-5.049,6.143-9.889,9.583-14.584
				c30.806-37.922,72.133-65.963,106.894-99.977c8.772-8.585,17.121-17.611,24.726-27.254
				c10.603-13.443,19.786-27.719,29.021-42.119c16.713-26.061,32.959-52.417,49.824-78.38
				c15.381-23.679,31.342-46.996,48.586-69.364c-1.902,2.463-3.806,4.926-5.707,7.389c75.929-97.967,145.703-202.438,183.89-321.452
				c2.999-9.349,5.733-18.78,8.224-28.275c5.815-4.67,10.32-11.114,12.644-18.702c28.224-92.218,70.633-180.809,83.634-277.148
				c13.986-103.645,17.439-208.888,18.13-313.361c0.672-101.68-2.206-203.339-3.655-305c-0.715-50.188,1.037-100.738-2.726-150.813
				c-3.815-50.811-12.892-101.271-25.216-150.67c-11.923-47.783-27.221-94.687-44.141-140.915
				c-9.399-25.685-17.025-51.871-27.256-77.306c-13.211-32.842-27.859-65.195-45.814-95.741
				c-16.34-27.798-35.874-55.785-60.911-76.448c-16.632-13.726-35.851-26.002-57.538-29.497c-11.257-1.813-22.492,0.03-31.105,5.836
				c43.271-66.239,81.279-135.878,123.229-202.956c49.639-79.374,101.962-157.093,157.516-232.454
				c6.639-9.004,13.336-17.965,20.07-26.896c3.361-4.459,6.742-8.905,10.129-13.345c1.691-2.22,3.391-4.433,5.088-6.646
				c0.93-1.211,1.861-2.421,2.793-3.63c0.005-0.006,0.009-0.011,0.014-0.018c14.179-18.303,28.601-36.415,43.227-54.361
				c29.52-36.22,60.148-71.485,89.234-108.067c31.035-39.035,61.188-78.767,91.224-118.572c3.401-4.51,6.801-9.021,10.2-13.53
				c3.965,1.507,8.238,2.339,12.682,2.338c57.43-0.009,114.889-0.599,172.194-3.426c2.413,34.852,9.383,69.262,17.833,103.112
				c8.073,32.345,17.227,64.506,22.154,97.521c2.358,20.276,2.797,40.662,0.564,60.958c-2.807,17.462-7.582,34.457-14.046,50.913
				c-26.751,60.284-56.876,118.969-86.188,178.029c-27.42,55.249-55.633,110.648-73.332,169.922
				c-30.658,102.665-40.144,227.6,35.43,313.635c13.878,15.799,32.316,28.229,50.727,38.157
				c21.506,11.602,44.666,20.526,67.91,27.973c46.84,15.003,95.582,23.254,144.285,29.347c50.65,6.337,101.797,7.821,152.765,9.594
				c68.783,2.392,137.604,3.418,206.426,3.891c55.758,0.382,111.519,0.374,167.276,0.374c19.896,0,36.5-16.604,36.5-36.5
				s-16.604-36.5-36.5-36.5c-138.283,0-276.621,0.022-414.807-5.851c-39.255-1.668-78.35-3.724-117.322-8.741
				c-50.819-7.113-102.076-17.629-149.729-36.97c-14.868-6.53-29.319-14.132-42.502-23.634c-6.503-5.448-12.29-11.438-17.688-17.977
				c-7.121-9.815-13.166-20.306-18.19-31.343c-5.921-15.225-9.94-31.063-12.458-47.197c-3.074-27.042-2.254-54.351,0.998-81.346
				c6.225-42.952,18.092-85.019,33.654-125.497c26.588-59.768,56.461-117.978,85.531-176.556
				c15.001-30.225,29.734-60.585,43.691-91.309c7.819-17.215,15.582-34.475,21.07-52.6c2.865-9.459,4.957-19.088,6.598-28.803
				c2.935,0.729,6.004,1.03,9.154,0.819c49.604-3.314,89.197-37.688,122.057-72.104c29.864-31.28,55.354-66.623,86.025-97.118
				c15.398-15.31,31.322-30.02,46.352-45.716c16.217-16.938,31.781-34.495,46.681-52.604c31.804-38.658,60.619-79.64,86.403-122.537
				c7.168-11.928,6.213-26.713-0.813-37.937c38.981-25.606,76.813-52.929,116.513-77.449c21.449-13.249,42.819-25.852,65.885-36.032
				c1.361-0.572,4.686-1.984,5.264-2.222c2.893-1.189,5.793-2.355,8.693-3.524c5.785-2.33,11.582-4.632,17.369-6.96
				c14.295-5.75,28.547-11.664,42.488-18.229c26.191-12.334,47.723-29.938,69.533-48.724c21.391-18.423,42.471-37.199,64.604-54.735
				c0.526-0.416,0.965-0.766,1.336-1.061c0.49-0.367,1.185-0.89,2.168-1.637c2.771-2.104,5.58-4.161,8.39-6.216
				c5.731-4.193,11.583-8.221,17.478-12.181c13.14-8.827,25.562-18.94,37.891-28.839c21.305-17.102,41.598-35.436,61.831-53.773
				c20.702-18.762,41.332-37.6,62.651-55.66c5.143-4.356,10.349-8.636,15.582-12.879c2.617-2.123,5.263-4.214,7.906-6.304
				c0.438-0.346,0.805-0.636,1.133-0.896c0.476-0.356,1.164-0.877,2.158-1.632c11.854-9.004,24.078-17.533,36.238-26.112
				c49.109-34.644,98.857-68.31,146.377-105.148c45.546-35.308,86.512-75.673,130.059-113.329
				c21.207-18.337,42.852-36.161,64.892-53.485c2.048-1.609,4.104-3.206,6.162-4.803c-0.632,0.506,5.13-3.929,5.417-4.147
				c5.518-4.21,11.075-8.368,16.646-12.509c11.644-8.654,23.627-16.838,35.16-25.638c69.086-52.717,120.589-123.141,185.285-180.554
				C8277.697,95.097,8276.244,70.126,8262.811,56.69z M2184.459,481.296C2183.159,482.158,2180.215,482.784,2184.459,481.296
				L2184.459,481.296z M1826.857,2575.088c-1.901,3.177-3.944,6.266-6.079,9.29c-0.408,0.574-0.824,1.144-1.242,1.709
				c-1.195,1.491-2.454,2.929-3.732,4.349c-2.257,2.508-4.699,4.842-7.247,7.051c-0.199,0.172-0.363,0.315-0.511,0.447
				c-0.174,0.119-0.372,0.259-0.611,0.429c-1.458,1.034-2.984,1.968-4.529,2.868c-3.182,1.857-5.643,4.526-7.317,7.596
				c-14.238-4.901-28.388-10.053-42.353-15.726c-0.54-0.22-0.99-0.401-1.395-0.563c-0.568-0.254-1.437-0.635-2.712-1.188
				c-3.255-1.413-6.48-2.889-9.706-4.364c-6.684-3.058-13.057-7.242-19.519-10.759c-13.905-7.565-27.938-14.896-42.032-22.102
				c-26.568-13.578-53.47-26.499-80.496-39.134c-54.438-25.45-110.112-48.504-164.058-74.979
				c-79.799-39.165-149.452-95.371-225.647-140.565c12.014-16.192,17.262-37.455,23.159-56.252c0.831-2.646,1.704-5.28,2.613-7.902
				c0.442-1.274,0.912-2.538,1.386-3.801c0.365-0.979,2.381-4.72,0.246-0.491c3.495-6.925,7.393-13.644,11.495-20.222
				c3.798-6.088,7.887-11.988,12.119-17.778c0.761-1.04,1.541-2.066,2.318-3.095c0.129-0.149,2.016-2.604,2.199-2.834
				c2.603-3.283,5.292-6.498,8.012-9.687c10.165-11.914,20.848-23.378,30.99-35.319c10.191-12,20.171-24.179,30.156-36.351
				c19.786-24.118,39.605-48.231,60.937-71.013c5.037-5.38,10.053-10.762,15.421-15.814c2.51-2.363,5.12-4.616,7.765-6.825
				c0.289-0.241,1.84-1.463,2.426-1.937c1.296-0.96,2.605-1.901,3.928-2.827c4.995-3.499,10.265-6.588,15.688-9.367
				c1.298-0.665,2.617-1.282,3.938-1.899c0.293-0.138,0.957-0.421,1.563-0.678c2.671-1.051,5.391-1.978,8.13-2.833
				c4.432-1.385,8.969-2.405,13.541-3.202c-0.041,0.068,5.043-0.599,6.228-0.685c3.079-0.226,6.168-0.271,9.254-0.249
				c2.647,0.019,5.292,0.168,7.931,0.357c1.014,0.073,5.002,0.571,6.009,0.672c5.075,0.822,10.098,1.953,15.064,3.275
				c5.335,1.42,10.58,3.169,15.761,5.071c1.935,0.71,3.849,1.471,5.758,2.245c0.574,0.248,2.047,0.87,2.535,1.086
				c1.748,0.773,3.479,1.582,5.207,2.396c11.101,5.222,21.787,11.299,32.219,17.741c21.564,13.318,41.89,28.564,61.984,43.976
				c20.853,15.99,41.392,32.397,63.318,46.916c23.093,15.289,47.472,28.499,72.388,40.55c26.279,12.71,53.076,24.818,80.105,35.846
				c18.084,7.378,36.998,12.733,55.609,18.583c11.492,3.611,22.956,7.314,34.315,11.326c5.461,1.929,10.887,3.956,16.277,6.073
				c1.229,0.481,2.453,0.978,3.677,1.472c0.436,0.177,1.548,0.643,2.435,1.016c2.362,1.021,4.711,2.073,7.048,3.151
				c9.821,4.536,19.373,9.721,28.247,15.924c0.731,0.513,1.448,1.044,2.167,1.575c0.199,0.167,0.446,0.372,0.765,0.634
				c1.308,1.076,2.563,2.213,3.801,3.368c-0.388,0.409-0.774,0.818-1.154,1.229c-16.042,17.287-28.678,38.559-39.832,59.233
				c-15.214,28.199-31.6,55.747-47.976,83.28c-8.102,13.619-16.202,27.236-24.182,40.928c-6.68,11.461-13.67,22.847-19.228,34.907
				c-9.482,20.575-16.757,42.094-25.073,63.146c-0.667,1.688-1.344,3.368-2.024,5.051c-0.269,0.666-1.3,3.142-1.766,4.271
				c-1.373,3.2-2.785,6.383-4.244,9.545C1834.875,2560.703,1831.087,2568.023,1826.857,2575.088z M4548.149,3330.041
				c-2.13,2.813-4.264,5.622-6.398,8.431c-0.297,0.393-0.551,0.728-0.785,1.036c-0.363,0.438-1.094,1.339-2.401,2.979
				c-4.619,5.791-9.215,11.6-13.804,17.412c-9.916,12.564-19.748,25.194-29.537,37.859c-19.904,25.757-39.619,51.656-59.146,77.701
				c-36.712,48.968-72.799,98.399-108.903,147.816c-36.353,49.756-72.729,99.495-109.689,148.803
				c-0.854,1.137-1.691,2.284-2.533,3.432c-0.825,1.074-1.907,2.486-2.35,3.043c-3.455,4.345-6.982,8.631-10.498,12.927
				c-9.396,11.485-18.648,23.075-27.556,34.946c-1.903,2.535-3.763,5.107-5.571,7.716c-48.885-9.567-98.879-9.226-147.328,3.162
				c-47.486,12.142-90.268,36.077-128.33,66.483c-27.961,22.336-52.347,49.412-73.062,78.78c-0.469-0.633-0.947-1.262-1.448-1.878
				c-106.535-131.123-254.621-218.832-394.568-309.476c-34.741-22.503-69.248-45.382-102.964-69.401
				c-8.017-5.712-15.973-11.509-23.884-17.366c-2.069-1.53-4.105-3.102-6.146-4.67c-0.015-0.011-0.024-0.019-0.039-0.028
				c-0.261-0.202-0.556-0.433-0.916-0.711c-4.868-3.774-9.719-7.575-14.561-11.386c-17.388-13.681-34.597-27.59-51.71-41.61
				c-69.269-56.752-136.741-115.653-205.95-172.479c-70.428-57.826-142.714-113.821-219.736-162.656
				c-80.762-51.205-166.895-92.22-252.541-134.367c-26.606-13.095-53.398-25.983-78.054-42.557
				c-5.509-3.703-10.893-7.589-16.229-11.537c-0.893-0.658-3.962-3.015-5.298-4.031c-1.674-1.324-3.343-2.655-5.008-3.991
				c-10.363-8.323-20.447-16.992-30.467-25.727c-41.701-36.353-82.646-74.692-131.318-101.714
				c-5.433-3.018-11.347-4.571-17.222-4.754c-19.745-19.982-40.837-38.218-66.389-51.487c-11.728-6.091-24.035-11.114-36.284-16.032
				c-6.13-2.463-12.365-4.577-18.587-6.789c-3.235-1.148-6.442-2.375-9.65-3.599c-1.002-0.382-10.095-4.101-8.968-3.576
				c-25.271-10.884-49.455-24.202-72.686-38.911c-11.361-7.191-22.464-14.841-33.446-22.596c-5.39-3.807-10.672-7.767-15.937-11.744
				c-2.001-1.512-3.988-3.043-5.978-4.572c-1.377-1.066-6.056-4.678-6.767-5.228c-21.781-16.838-43.561-33.663-68.518-45.595
				c-25.309-12.1-52.755-20.214-79.514-28.763c11.057-10.521,19.771-23.583,26.951-36.95c11.179-20.813,19.32-43.225,27.654-65.28
				c1.831-4.848,3.673-9.689,5.557-14.519c0.906-2.321,1.83-4.635,2.764-6.944c0.396-0.978,0.8-1.953,1.204-2.928
				c0.119-0.273,0.279-0.64,0.488-1.119c4.917-11.318,11.154-21.897,17.315-32.573c15.89-27.531,32.416-54.69,48.467-82.129
				c14.482-24.757,27.624-50.326,42.809-74.662c2.857-4.579,5.837-9.082,8.94-13.499c0.559-0.795,2.938-3.978,3.494-4.759
				c1.373-1.713,2.774-3.4,4.219-5.055c3.014-3.451,6.269-6.686,9.739-9.674c0.146-0.127,0.341-0.286,0.548-0.455
				c0.435-0.305,0.873-0.604,1.312-0.903c1.805-1.229,3.708-2.3,5.657-3.281c0.649-0.224,1.303-0.432,1.96-0.631
				c0.743-0.226,2.238-0.477,3.325-0.649c0.997-0.023,1.995-0.003,2.989,0.049c1.127,0.233,2.239,0.524,3.344,0.845
				c0.592,0.171,1.176,0.368,1.756,0.577c0.281,0.116,0.549,0.232,0.75,0.33c2.249,1.092,4.381,2.408,6.473,3.771
				c0.465,0.303,0.919,0.621,1.372,0.941c0.156,0.141,1.931,1.487,2.412,1.895c2.868,2.415,5.541,5.057,8.151,7.744
				c9.582,9.861,17.833,20.64,28.103,29.886c10.237,9.217,21.47,17.528,33.347,24.509c23.836,14.01,50.736,21.904,78.303,23.387
				c14.139,0.76,28.871-0.605,42.658-3.754c12.371-2.822,23.031-9.347,32.805-17.155c16.736-13.375,27.637-33.429,38.604-51.439
				c2.625-4.311,5.297-8.59,8.076-12.803c1.378-2.09,2.805-4.146,4.256-6.187c0.605-0.852,1.23-1.688,1.854-2.527
				c0.347-0.432,0.691-0.864,1.044-1.292c7.507-9.201,16.684-17.203,25.33-25.306c14.906-13.969,30.337-27.393,44.285-42.346
				c15.482-16.598,28.904-35.236,38.476-55.856c4.589-9.89,2.882-21.474-7.175-27.364c-8.73-5.114-22.774-2.714-27.364,7.175
				c-5.545,11.949-12.307,23.179-20.173,33.729c-0.403,0.501-1.576,2.004-1.859,2.353c-0.979,1.21-1.983,2.398-2.988,3.588
				c-1.998,2.365-4.066,4.67-6.152,6.958c-4.512,4.946-9.242,9.689-14.039,14.356c-18.094,17.604-38.469,33.461-55.041,52.547
				c-14.604,16.819-24.699,36.657-36.951,55.105c-1.352,2.035-2.752,4.035-4.179,6.018c-0.271,0.375-0.552,0.74-0.826,1.111
				c-0.38,0.488-0.894,1.146-1.172,1.49c-3.203,3.925-6.725,7.576-10.525,10.924c-0.278,0.245-0.757,0.639-1.178,0.983
				c-0.38,0.27-0.762,0.535-1.146,0.8c-1.899,1.314-3.903,2.47-5.938,3.561c-0.47,0.251-0.947,0.487-1.427,0.719
				c-0.483,0.209-1.018,0.435-1.36,0.561c-2.825,1.029-5.751,1.747-8.698,2.32c-1.594,0.311-3.196,0.569-4.799,0.828
				c-0.161,0.026-0.307,0.051-0.442,0.072c-0.177,0.021-0.368,0.042-0.598,0.069c-3.135,0.371-6.285,0.592-9.438,0.761
				c-6.668,0.357-13.358,0.147-20.008-0.424c-0.682-0.059-1.362-0.129-2.043-0.203c-0.052-0.019-2.479-0.328-3.138-0.435
				c-2.963-0.478-5.901-1.095-8.83-1.755c-6.308-1.426-12.489-3.365-18.554-5.602c-0.671-0.247-1.339-0.505-2.005-0.767
				c-0.089-0.045-2.291-0.948-2.854-1.2c-2.726-1.219-5.396-2.554-8.049-3.924c-5.779-2.985-11.333-6.395-16.725-10.026
				c-2.005-1.352-3.963-2.771-5.906-4.212c-0.579-0.445-1.85-1.418-2.198-1.697c-1.188-0.955-2.353-1.938-3.518-2.92
				c-5.088-4.297-9.896-8.916-14.521-13.702c-9.612-9.947-17.633-21.079-28.584-29.71c-9.684-7.631-20.603-14.516-33.046-16.352
				c-8.762-1.293-16.809-0.814-24.762,1.352c-10.791-12.171-24.551-21.512-38.945-29.105c-20.448-10.788-42.479-18.691-64.387-25.94
				c-19.923-6.593-40.104-12.394-59.946-19.234c-4.004-1.381-7.983-2.831-11.933-4.36c-0.722-0.279-1.439-0.569-2.159-0.857
				c-0.249-0.11-0.55-0.243-0.923-0.406c-3.828-1.674-7.657-3.347-11.485-5.021c-13.109-5.734-26.207-11.502-39.219-17.457
				c-25.021-11.45-49.632-23.792-73.24-37.952c-23.342-14-45.061-30.202-66.583-46.808c-40.384-31.162-80.939-62.815-128.73-81.845
				c-21.96-8.742-46.225-13.688-69.903-11.963c-26.63,1.939-51.838,11.813-73.16,27.803c-25.155,18.867-45.615,43.732-65.815,67.634
				c-20.272,23.985-39.797,48.593-60.161,72.502c-12.052,14.148-24.92,27.61-36.545,42.116
				c-12.296,15.345-23.492,31.477-32.739,48.848c-7.605,14.285-11.308,30.19-16.329,45.475c-1.04,3.167-2.168,6.305-3.363,9.415
				c-0.134,0.345-0.274,0.686-0.411,1.027c-0.08,0.178-0.175,0.392-0.285,0.644c-0.748,1.666-1.574,3.295-2.416,4.916
				c-0.825,1.586-1.742,3.123-2.678,4.647c-0.359,0.586-1.67,2.414-2.094,3.056c-0.814,0.936-1.677,1.826-2.568,2.689
				c-8.938-4.68-17.991-9.169-27.191-13.411c-92.509-42.652-186.807-81.496-276.896-129.233
				c-45.067-23.881-88.948-50.125-130.305-80.021c-4.877-3.524-9.695-7.131-14.492-10.766c-0.256-0.194-0.487-0.37-0.701-0.531
				c-0.363-0.287-0.816-0.644-1.4-1.101c-2.356-1.844-4.689-3.717-7.023-5.589c-10.061-8.074-19.851-16.482-29.435-25.116
				c-17.437-15.704-34.233-32.319-48.923-50.644c-1.396-1.851-2.769-3.719-4.135-5.59c-3.298-4.518-6.457-9.135-9.579-13.774
				c-6.493-9.649-12.565-19.579-18.456-29.605c-11.793-20.07-22.489-40.776-32.744-61.666c-19.972-40.679-37.688-82.4-56.17-123.763
				c-22.381-50.089-47.93-97.899-81.656-141.323c-1.439-1.839-2.9-3.661-4.382-5.466c-0.529-0.652-0.949-1.167-1.295-1.589
				c-0.327-0.442-0.757-1.02-1.329-1.779c-3.717-4.941-7.227-10.035-10.647-15.183c-6.109-9.193-11.547-18.814-16.651-28.595
				c-10.725-20.545-19.788-41.931-30.108-62.68c-6.764-13.598-22.826-19.618-37.294-17.457c-0.971-2.611-1.912-5.234-2.817-7.869
				c-2.758-8.031-5.099-16.202-7.229-24.42c-4.176-16.113-7.165-32.521-9.539-48.989c-0.244-1.922-0.473-3.847-0.7-5.771
				c-0.491-4.169-0.923-8.346-1.336-12.524c-0.9-9.098-1.589-18.216-2.175-27.338c-2.199-34.289-2.365-68.678-2.198-103.024
				c0.076-15.56,0.238-31.119,0.27-46.68c0.018-8.987,0.252-17.936,0.951-26.896c0.152-1.947,1.041-9.345,1.141-10.59
				c0.566-3.535,1.214-7.06,1.906-10.571c3.105-15.763,7.859-31.158,13.736-46.099c0.356-0.702,3.198-7.33,4.025-9.095
				c1.767-3.771,3.644-7.489,5.553-11.188c4.156-8.054,8.7-15.902,13.428-23.632c9.284-15.18,19.61-29.706,30.313-43.911
				c0.938-1.244,1.887-2.481,2.834-3.721c0.309-0.398,0.59-0.763,0.793-1.023c2.721-3.485,5.474-6.946,8.234-10.4
				c6.079-7.609,12.254-15.144,18.442-22.665c24.223-29.435,48.696-58.596,71.91-88.842c20.995-27.354,41.027-55.435,60.904-83.604
				c20.086-28.468,39.992-57.063,60.43-85.279c10.21-14.098,20.578-28.081,31.148-41.91c0.315-0.413,0.798-1.041,1.279-1.667
				c0.646-0.829,1.288-1.659,1.934-2.487c2.559-3.282,5.14-6.548,7.729-9.808c5.599-7.048,11.286-14.024,17.04-20.945
				c21.985-26.444,45.297-51.803,70.319-75.407c12.459-11.754,25.414-22.979,38.787-33.682c1.127-0.902,2.265-1.792,3.4-2.683
				c0.222-0.171,0.425-0.325,0.593-0.453c3.284-2.496,6.609-4.938,9.949-7.359c7.265-5.268,14.688-10.313,22.207-15.206
				c14.648-9.529,29.835-18.217,45.4-26.157c3.579-1.825,7.189-3.592,10.818-5.315c0.926-0.44,1.862-0.856,2.798-1.276
				c5.467-2.174,11.027-4.109,16.631-5.898c13.414-4.288,27.161-7.5,40.977-10.187c7.146-1.389,14.329-2.569,21.526-3.646
				c1.087-0.163,2.176-0.313,3.264-0.468c0.016-0.002,0.032-0.004,0.046-0.006c4.431-0.563,8.867-1.058,13.309-1.529
				c66.794-7.084,134.69-5.337,201.483,0.813c7.641,0.704,15.271,1.498,22.896,2.351c3.712,0.415,7.421,0.857,11.129,1.311
				c1.61,0.196,5.978,0.771,8.556,1.106c12.721,1.78,25.405,3.813,38.036,6.144c37.986,7.007,75.645,15.483,113.42,23.519
				c21.08,4.483,42.251,8.527,63.591,11.57c20.873,2.977,42.568,6.618,63.718,5.519c30.705-1.597,61.224-7.421,91.655-11.676
				c0.962-0.128,1.893-0.252,2.49-0.33c2.563-0.33,5.127-0.644,7.691-0.954c5.712-0.689,11.433-1.301,17.16-1.85
				c10.307-0.988,20.646-1.644,31-1.818c4.504-0.075,9.008,0.004,13.508,0.188c2.196,0.09,8.281,0.772,10.816,1.012
				c2.462,0.495,4.906,1.077,7.326,1.755c0.83,0.233,1.651,0.491,2.469,0.766c0.126,0.065,0.253,0.13,0.378,0.196
				c13.414,7.094,29.376,6.033,40.799-2.71c89.174,3.084,173.17,29.797,258.764,53.692c37.126,10.365,74.636,20.036,113.132,23.483
				c17.222,1.542,36.106,0.532,52.425-5.43c22.15-8.092,35.313-25.342,44.819-46.13c1.666-3.642,3.371-7.245,5.187-10.814
				c0.087-0.173,2.483-3.376,3.658-5.122c0.621-0.21,1.35-0.453,2.207-0.73c4.394-1.422,4.809-1.279,9.438-1.635
				c18.652-1.435,37.671,0.429,56.398-0.02c30.97-0.739,61.943-1.285,92.923-1.302c68.69-0.033,143.244,2.843,207.631,12.299
				c66.472,9.763,131.192,25.572,185.832,58.517c23.909,14.416,42.996,31.605,59.605,56.015
				c20.055,29.472,34.251,62.318,49.467,94.402c15.039,31.709,32.755,61.707,57.078,87.275
				c30.604,32.173,70.358,49.649,110.2,67.291c88.85,39.341,180.602,74.468,262.262,127.945
				c77.656,50.856,144.156,116.847,223.012,166.074c40.082,25.021,84.703,39.504,127.628,58.642
				c39.302,17.522,69.647,42.729,102.862,69.291c35.646,28.508,73.808,47.041,118.792,55.925
				c48.167,9.514,97.76,8.945,145.665,19.862c46.566,10.612,90.63,33.491,134.211,52.38c43.18,18.715,84.134,38.733,123.809,64.238
				c55.625,35.759,108.992,74.268,165.763,108.295c59.383,35.592,118.903,70.96,177.362,108.062
				c113.459,72.009,222.537,151.718,313.031,251.782c-11.119,6.114-21.006,14.388-28.443,24.459
				c-9.252,3.835-18.443,7.817-27.62,11.823c-7.108,3.104-14.211,6.223-21.334,9.295c-1.121,0.484-2.244,0.962-3.367,1.441
				c-0.646,0.271-2.995,1.268-3.463,1.463c-4.131,1.722-8.28,3.394-12.444,5.035c-4.709,1.854-9.432,3.608-14.049,5.697
				c-1.34,0.604-2.686,1.193-4.03,1.782c-0.31,0.136-0.836,0.362-1.362,0.588c-5.689,2.376-11.424,4.65-17.172,6.88
				c-12.59,4.886-25.267,9.549-37.869,14.399c-26.076,10.037-52.429,20.609-76.097,35.64c-11.761,7.469-23.131,15.784-32.478,26.182
				c-3.496,3.889-6.752,7.984-9.803,12.23c-31.063-20.574-63.914-38.188-96.734-55.771c-34.604-18.536-68.094-38.697-102.146-58.177
				c-30.135-17.238-60.845-30.243-92.731-42.147c-12.356-4.614-21.036-7.954-33.063-15.537c-8.906-5.614-12.607-9.794-14.041-19.694
				c-1.254-8.656-11.236-14.684-19.287-14.684c-2.695,0-5.227,0.543-7.535,1.507c-20.771-20.139-49.184-33.155-75.106-43.954
				c-16.744-6.976-33.937-12.819-51.14-18.544c-22.187-7.382-44.231-15.684-67.452-19.179c-25.878-3.895-51.646-1.594-76.379,6.998
				c-19.646,6.824-40.209,18.68-59.272,18.573c-7.275-0.041-13.859-1.956-22.492-5.245c-5.677-2.163-16.398-8.524-23.502-13.07
				c-16.623-10.639-32.094-22.967-49.021-33.15c-21.19-12.748-45.604-20.457-68.675-29.058
				c-24.772-9.233-49.613-18.295-73.619-29.413c-48.907-22.647-94.752-53.411-140.1-82.353
				c-76.574-48.87-153.786-96.634-230.358-145.473c-32.41-20.673-65.545-40.464-100.574-56.408
				c-32.965-15.004-68.837-27.922-105.571-27.152c-39.117,0.82-72.125,24.043-101.483,47.763
				c-34.671,28.013-64.008,63.063-87.822,100.618c-22.612,35.661-40.633,76.112-47.215,118.028
				c-3.315,21.111-3.636,42.797-1.842,64.081c1.75,20.769,7.528,38.496,18.625,54.921c-49.854,17.342-99.468,35.383-148.167,55.776
				c-8.12,3.399-16.221,6.846-24.295,10.354c-1.776,0.771-3.549,1.55-5.322,2.328c4.3-1.887,0.418-0.214-0.408,0.113
				c-2.697,1.067-5.391,2.146-8.081,3.231c-11.191,4.516-22.323,9.199-33.329,14.155c-20.279,9.134-40.082,19.49-58.424,32.112
				c-36.371,25.029-67.546,60.189-74.723,105.122c-1.719,10.756,2.601,21.476,13.969,24.603c9.624,2.647,22.88-3.188,24.604-13.969
				c0.836-5.242,1.991-10.396,3.481-15.491c0.726-2.478,1.576-4.917,2.467-7.339c0.132-0.358,0.273-0.715,0.412-1.07
				c0.036-0.021,1.2-2.762,1.563-3.53c2.156-4.572,4.677-8.965,7.382-13.231c1.353-2.132,2.797-4.203,4.269-6.253
				c0.229-0.319,0.698-0.942,1.08-1.449c0.67-0.832,1.35-1.659,2.034-2.48c6.867-8.238,14.711-15.631,22.979-22.442
				c0.917-0.755,1.848-1.492,2.777-2.229c0.116-0.087,0.243-0.184,0.396-0.297c2.106-1.591,4.253-3.125,6.412-4.646
				c4.715-3.318,9.568-6.438,14.481-9.452c18.34-11.248,37.857-20.484,57.623-28.931c1.011-0.418,4.45-1.863,5.319-2.221
				c2.337-0.963,4.681-1.912,7.024-2.857c6.84-2.759,13.667-5.505,20.428-8.462c3.542-1.549,7.092-3.078,10.645-4.601
				c1.363-0.584,2.729-1.163,4.096-1.742c0.072-0.027,3.402-1.434,3.55-1.494c7.671-3.212,15.371-6.355,23.087-9.458
				c48.72-19.593,98.273-37.022,147.927-54.083c9.441,4.505,19.425,8.056,28.597,11.572c19.854,7.614,39.946,18.838,62.666,22.946
				c22.634,4.093,44.181,7.063,64.701,18.125c21.241,11.452,40.656,26.009,61.698,37.834c1.396,0.784,2.788,1.569,4.182,2.354
				c-4.97,10.104-9.976,20.199-15.546,29.965c-7.617,13.354-14.729,26.995-21.547,40.773c-13.491,27.27-25.584,55.204-37.51,83.185
				c-24.008,56.329-47.568,113.013-79.23,165.594c-24.844,41.261-62.592,87.742-44.289,138.862
				c10.062,28.102,31.457,50.768,54.807,68.556c21.094,16.069,45.508,27.017,69.805,37.243c11.751,4.947,23.647,9.539,35.519,14.189
				c5.563,2.179,11.12,4.375,16.658,6.616c2.195,0.89,4.382,1.8,6.568,2.71c0.729,0.313,2.837,1.207,3.188,1.357
				c2.257,0.972,4.507,1.961,6.754,2.954c28.276,12.485,55.754,26.743,82.515,42.2c26.918,15.547,52.359,33.461,79.405,48.767
				c26.199,14.825,53.408,27.763,80.562,40.719c26.673,12.729,53.23,24.94,77.271,42.317c2.687,1.939,5.335,3.933,7.977,5.935
				c0.318,0.241,0.568,0.431,0.771,0.583c0.132,0.104,0.271,0.212,0.435,0.338c1.309,1.02,2.608,2.046,3.91,3.073
				c5.629,4.447,11.187,8.986,16.746,13.521c11.477,9.364,22.99,18.679,34.854,27.554c17.857,13.36,36.972,23.94,57.148,33.302
				c19.154,8.886,38.43,17.523,56.979,27.643c6.064,3.308,12.021,6.811,17.843,10.525c2.786,1.778,5.52,3.639,8.216,5.548
				c0.774,0.55,1.531,1.12,2.293,1.686c0.694,0.534,1.693,1.306,2.114,1.648c4.091,3.343,7.921,6.996,11.414,10.959
				c-0.468,7.479,2.688,15.521,9.716,18.56c26.39,11.406,53.638,20.443,80.604,30.345c6.264,2.301,12.499,4.679,18.699,7.146
				c1.531,0.61,3.059,1.234,4.585,1.858c0.271,0.111,1.258,0.527,2.046,0.858c3.201,1.375,6.382,2.802,9.545,4.264
				c11.896,5.501,23.428,11.762,34.037,19.477c1.389,1.01,2.763,2.04,4.137,3.069c0.23,0.173,1.777,1.361,2.458,1.881
				c2.444,1.913,4.865,3.855,7.272,5.813c6.059,4.923,11.986,10.003,17.864,15.137c11.537,10.077,22.793,20.473,34.061,30.852
				c22.278,20.521,44.403,40.86,69.589,57.82c45.946,30.938,97.275,52.596,147.313,75.857c25.27,11.749,50.326,23.996,74.474,37.934
				c12.155,7.017,24.019,14.529,35.537,22.547c2.785,1.938,5.535,3.927,8.272,5.932c1.373,1.006,2.733,2.027,4.095,3.052
				c0.226,0.169,1.449,1.114,2.183,1.68c4.904,3.837,9.748,7.754,14.605,11.65c82.501,66.17,171.329,141.927,282.518,145.596
				c0.16,0.005,0.318,0.006,0.479,0.011C4548.9,3329.044,4548.526,3329.543,4548.149,3330.041z M4365.363,2524.702
				c-13.694,5.061-31.584-1.068-45.046-5.487c-22.557-7.404-44.902-13.741-66.678-23.464
				c-44.789-19.996-86.701-45.843-128.655-71.079c-90.215-54.27-185.552-98.976-278.54-148.161
				c-48.158-25.474-95.804-52.173-141.014-82.628c-43.791-29.498-85.687-63.623-132.246-88.732
				c-42.984-23.183-91.919-32.244-132.799-59.74c-45.195-30.4-91.763-58.721-138.791-86.18
				c-46.896-27.38-94.343-53.801-141.677-80.411c-20.806-11.697-39.844-26.259-61.043-37.308
				c-22.015-11.474-45.11-15.384-69.259-19.509c-22.54-3.85-41.568-14.823-62.667-22.946c-16.776-6.458-33.038-12.142-43.16-27.002
				c-11.223-16.478-10.837-37.457-10.835-56.86c0.001-20.523,1.85-35.4,7.32-55.191c11.213-40.56,32.991-77.938,58.458-111.484
				c24.692-32.523,55.448-61.632,90.119-82.776c3.975-2.424,8.048-4.685,12.153-6.877c2.01-1.073,4.05-2.084,6.09-3.096
				c0.188-0.093,0.351-0.175,0.501-0.25c0.249-0.089,0.558-0.203,0.958-0.356c3.186-1.216,6.482-2.115,9.792-2.916
				c1.679-0.406,3.381-0.711,5.08-1.019c0.212-0.032,0.383-0.06,0.556-0.087c0.948-0.102,1.896-0.198,2.846-0.273
				c7.34-0.642,14.743-0.331,22.065,0.362c0.225,0.021,2.954,0.385,3.653,0.465c1.513,0.24,3.021,0.504,4.527,0.774
				c4.663,0.841,9.278,1.935,13.868,3.102c36.121,9.185,67.588,25.769,100.468,44.618c30.961,17.748,60.669,37.533,90.633,56.887
				c40.028,25.854,81.441,49.572,121.567,75.324c45.213,29.02,90.156,58.468,136.263,86.063
				c23.397,14.003,46.95,27.949,71.712,39.416c25.152,11.647,51.194,21.279,77.155,30.935c21.74,8.086,44.188,15.342,64.146,27.349
				c16.923,10.181,32.398,22.589,49.026,33.229c17.8,11.393,36.627,19.283,57.612,22.051c22.569,2.976,43.84-6.704,64.232-14.873
				c21.976-8.803,42.982-13.764,66.789-11.663c22.646,1.998,44.877,11.477,66.265,18.583c35.274,11.721,68.792,22.831,99.55,44.136
				c3.578,2.479,2.953,2.054,6.244,4.808c2.652,2.221,5.145,4.62,7.574,7.078c5.256,5.316,5.743,6.075,9.552,13.082
				c4.408,8.107,12.163,10.693,19.597,9.357c11.926,12.146,28.644,20.507,43.795,26.864c11.674,4.897,23.668,8.947,35.416,13.659
				c-3.221-1.388-2.172-0.95,3.146,1.311c2.978,1.133,5.942,2.292,8.899,3.479c4.229,1.698,8.369,3.625,12.506,5.535
				c9.455,4.363,18.693,9.188,27.842,14.157c36.274,19.701,71.155,41.791,107.559,61.325c34.794,18.671,69.74,37.156,102.674,59
				c-9,18.805-16.906,38.107-27.768,56.014c-6.49,10.704-13.795,20.951-21.276,30.979c-0.896,1.198-1.798,2.391-2.702,3.582
				c-0.189,0.252-0.521,0.684-0.859,1.124c-1.595,2.05-3.196,4.092-4.812,6.125c-4.21,5.302-8.5,10.539-12.821,15.749
				c-35.596,42.914-73.816,83.614-106.725,128.717c-29.564,40.522-53.88,86.651-58.529,137.321
				C4365.122,2512.882,4365.028,2518.829,4365.363,2524.702z M2999.092,2382.662c-3.293-4.669-6.124-9.643-8.551-14.811
				c-0.22-0.575-0.828-2.056-1.008-2.558c-0.47-1.312-0.863-2.647-1.256-3.983c-0.382-1.301-0.688-2.621-0.992-3.939
				c-0.156-0.675-0.463-2.633-0.615-3.518c-0.281-3.43-0.24-6.881,0.02-10.313c0.031,0.457,0.743-4.611,1.023-5.855
				c0.657-2.909,1.537-5.767,2.48-8.595c0.329-0.985,1.968-5.092,2.161-5.687c0.823-1.827,1.679-3.641,2.563-5.438
				c2.7-5.481,5.736-10.797,8.844-16.056c6.447-10.907,13.404-21.506,20.004-32.321c15.75-25.814,30.093-52.399,43.123-79.688
				c26.219-54.899,47.647-111.934,73.729-166.896c7.626-16.069,15.697-31.929,24.304-47.497
				c6.751-12.212,13.112-24.581,19.383-37.025c81.673,46.242,162.539,93.434,241.134,144.943
				c40.862,26.78,90.218,35.428,132.628,59.037c22.841,12.717,44.426,28.422,65.874,43.326
				c22.208,15.435,44.196,31.18,66.665,46.232c90.768,60.813,190.729,106.972,287.538,157.085
				c35.166,18.202,69.857,37.008,104.059,56.834c-1.917,3.082-3.075,6.7-3.202,10.555c-0.09,2.688-0.258,5.367-0.502,8.046
				c-0.043,0.475-0.168,1.53-0.25,2.236c-0.101,0.628-0.205,1.256-0.31,1.884c-0.997,5.958-2.473,11.829-4.171,17.622
				c-1.622,5.531-3.582,10.96-5.691,16.321c-0.147,0.377-0.584,1.433-0.877,2.148c-0.379,0.864-0.752,1.73-1.137,2.593
				c-1.425,3.2-2.941,6.359-4.49,9.502c-11.477,23.309-25.972,45.054-40.896,66.263c-14.191,20.167-29.134,39.802-43.049,60.163
				c-12.791,18.716-23.901,38.277-33.653,58.734c-14.01,29.391-25.94,59.787-41.937,88.203c-3.805,6.76-7.89,13.356-12.238,19.778
				c-1.885,2.78-3.859,5.497-5.873,8.188c-0.465,0.577-1.959,2.495-2.381,3.012c-1.432,1.756-2.911,3.471-4.404,5.174
				c-5.114,5.833-10.665,11.271-16.525,16.349c-1.35,1.168-2.733,2.298-4.123,3.418c-0.93,0.697-1.865,1.385-2.809,2.063
				c-3.481,2.51-7.1,4.823-10.776,7.033c-1.855,1.114-3.466,2.503-4.83,4.071c-35.86-18.625-75.982-29.515-113.483-44.217
				c-8.824-16.656-23.38-28.847-39.069-39.504c-17.932-12.18-37.633-21.691-57.224-30.857c-17.564-8.219-35.52-15.796-52.325-25.525
				c-5.522-3.197-10.868-6.695-16.127-10.307c-2.656-1.823-5.271-3.708-7.873-5.605c-1.309-0.955-2.604-1.926-3.901-2.896
				c-0.419-0.313-2.688-2.051-3.478-2.649c-10.468-8.146-20.659-16.642-30.968-24.983c-22.93-18.558-46.238-35.554-72.768-48.596
				c-27.314-13.429-55.002-26.084-82.153-39.843c-13.454-6.817-26.739-13.965-39.782-21.539
				c-13.461-7.817-26.31-16.569-39.468-24.873c-26.266-16.576-53.315-31.914-81.096-45.808
				c-26.185-13.095-53.134-24.407-80.384-35.069c-5.689-2.228-11.377-4.455-17.053-6.718c-2.854-1.14-5.705-2.294-8.551-3.458
				c-1.425-0.583-2.846-1.174-4.268-1.765c-0.022-0.009-0.035-0.015-0.057-0.022c-0.752-0.32-1.504-0.643-2.252-0.966
				c-11.695-5.023-23.201-10.491-34.336-16.666c-5.24-2.905-10.356-6.03-15.363-9.323c-2.476-1.627-4.896-3.334-7.294-5.07
				c-0.354-0.258-1.448-1.084-2.054-1.538c-1.058-0.849-2.107-1.706-3.149-2.574c-4.479-3.731-8.698-7.769-12.704-12.003
				c-2.001-2.115-3.898-4.325-5.754-6.568c-1.023-1.236-2.064-2.459-3.088-3.695
				C3002.676,2387.362,2999.439,2383.153,2999.092,2382.662z M4856.749,2914.422c-38.217,40.137-75.744,80.709-108.551,125.481
				c-16.61,22.667-30.672,46.963-45.666,70.692c-16.006,25.33-32.601,50.285-49.539,75c-24.957,36.409-50.821,72.186-77.174,107.598
				c-3.492-3.012-7.977-4.844-12.817-4.693c-6.301,0.194-12.593,0.145-18.89-0.152c-3.109-0.146-6.213-0.39-9.313-0.664
				c-1.543-0.136-3.084-0.304-4.624-0.472c-0.818-0.092-1.637-0.192-2.454-0.293c-12.642-1.812-25.101-4.767-37.315-8.464
				c-5.891-1.782-11.705-3.81-17.469-5.963c-2.893-1.08-5.76-2.228-8.618-3.393c-0.158-0.063-0.3-0.122-0.431-0.175
				c-0.147-0.063-0.309-0.134-0.496-0.214c-1.898-0.816-3.785-1.663-5.67-2.514c-11.873-5.359-23.41-11.447-34.703-17.936
				c-22.953-13.186-44.72-28.363-65.896-44.213c-2.549-1.908-5.086-3.834-7.619-5.764c-1.266-0.965-2.525-1.934-3.788-2.901
				c-0.13-0.1-0.248-0.189-0.356-0.272c-0.172-0.135-0.375-0.292-0.623-0.484c-5.418-4.201-10.803-8.447-16.172-12.71
				c-10.176-8.077-20.28-16.241-30.405-24.379c-22.229-17.866-44.673-35.021-69.147-49.739
				c-23.9-14.373-48.926-26.784-74.144-38.655c-50.01-23.542-101.293-44.902-147.957-74.851
				c-5.577-3.579-11.055-7.308-16.462-11.137c-2.712-1.921-5.389-3.893-8.053-5.881c-0.227-0.169-1.232-0.938-1.95-1.483
				c-1.553-1.255-3.042-2.612-4.554-3.909c-11.337-9.735-22.344-19.853-33.34-29.971c-22.246-20.472-44.488-40.85-68.339-59.443
				c36.263-25.879,59.886-64.097,78.743-104.183c9.932-21.112,18.916-42.659,29.195-63.61c9.957-20.293,21.746-39.432,34.676-57.955
				c21.546-30.867,44.811-60.521,64.381-92.735c17.903-29.472,33.35-62.08,37.038-96.685
				c39.203,23.571,78.632,46.907,120.562,65.362c26.371,11.606,53.386,20.243,81.006,28.26c18.345,5.324,37,6.938,54.22,2.144
				c6.753,16.664,17.166,31.891,30.586,44.677c26,24.771,59.165,40.457,91.601,54.889c33.83,15.054,68.129,29.274,99.439,49.279
				c9.576,6.119,18.816,12.757,27.871,19.619c0.285,0.216,0.747,0.569,1.197,0.915c0.604,0.472,1.211,0.94,1.813,1.415
				c2.229,1.747,4.441,3.517,6.648,5.291c4.844,3.894,9.629,7.856,14.39,11.851c18.744,15.725,36.963,32.062,55.45,48.083
				c36.423,31.569,74.48,63.688,118.648,83.886c16.129,7.375,32.383,12.839,49.405,16.243
				C4866.333,2904.301,4861.558,2909.371,4856.749,2914.422z M5401.731,2334.857c-10.021,1.939-19.219,7.826-24.247,17.221
				c-4.802,8.97-10.263,17.492-16.212,25.742c-0.408,0.566-1.566,2.082-2.406,3.178c-1.127,1.395-2.263,2.781-3.404,4.164
				c-4.107,4.972-8.423,9.771-12.792,14.514c-16.483,17.898-34.616,34.253-53.058,50.096c-36.44,31.311-75.166,59.912-110.92,92.027
				c-82.154,73.789-144.498,167.499-214.832,251.91c-19.239,23.09-38.739,45.76-58.658,68.082c-4.256-3.79-9.994-6.101-16.201-6.791
				c-0.23-0.025-0.524-0.062-0.836-0.1c-0.584-0.091-1.168-0.175-1.75-0.269c-2.517-0.407-5.016-0.904-7.508-1.431
				c-5.429-1.146-10.781-2.623-16.074-4.279c-4.916-1.538-9.748-3.33-14.527-5.247c-0.971-0.425-1.939-0.854-2.906-1.289
				c-2.818-1.271-5.602-2.618-8.369-3.994c-20.666-10.274-39.852-23.367-58.203-37.292c-0.279-0.213-0.748-0.571-1.205-0.923
				c-0.668-0.521-1.338-1.042-2.004-1.564c-2.278-1.787-4.541-3.596-6.799-5.409c-4.931-3.963-9.804-7.996-14.65-12.061
				c-9.411-7.887-18.684-15.939-27.93-24.018c-18.336-16.019-36.545-32.189-55.387-47.614
				c-18.898-15.474-38.402-30.416-59.327-43.068c-15.772-9.537-32.358-17.844-49.092-25.546
				c-32.285-14.86-65.745-27.561-96.377-45.768c-6.409-3.81-12.629-7.931-18.619-12.366c-0.876-0.687-1.946-1.525-2.496-1.979
				c-1.466-1.21-2.897-2.46-4.317-3.724c-3.025-2.695-5.908-5.548-8.674-8.507c-1.258-1.349-2.471-2.738-3.664-4.145
				c-0.349-0.409-0.685-0.83-1.023-1.247c-2.092-2.86-4.018-5.84-5.798-8.902c-0.919-1.579-1.769-3.196-2.593-4.825
				c-0.359-0.711-0.986-2.099-1.445-3.112c-1.064-2.841-1.974-5.74-2.769-8.667c-0.506-1.861-0.925-3.746-1.315-5.635
				c-0.18-0.871-0.467-2.661-0.658-3.851c-0.324-3.39-0.465-6.797-0.49-10.201c-0.033-4.467,0.254-8.931,0.701-13.373
				c0.028-0.291,0.069-0.58,0.103-0.871c0.058-0.409,0.117-0.813,0.166-1.122c0.458-2.876,1.03-5.731,1.646-8.579
				c2.439-11.332,6.162-22.333,10.307-33.142c0.417-1.088,0.855-2.167,1.295-3.247c0.023-0.052,0.043-0.097,0.066-0.153
				c1.135-2.6,2.342-5.167,3.567-7.725c2.726-5.682,5.704-11.236,8.804-16.723c6.238-11.045,13.19-21.679,20.457-32.07
				c3.619-5.181,7.357-10.276,11.148-15.334c0.959-1.279,1.928-2.553,2.896-3.824c0.158-0.208,0.441-0.577,0.748-0.977
				c2.151-2.77,4.326-5.521,6.512-8.264c17.1-21.448,35.172-42.102,53.13-62.826c35.14-40.554,71.638-81.611,95.026-130.353
				c5.49-11.441,10.482-23.113,16.029-34.529c2.523-5.196,5.217-10.308,8.107-15.31c1.424-2.461,2.938-4.867,4.492-7.248
				c0.773-1.188,1.584-2.35,2.396-3.512c0.31-0.441,1.032-1.396,1.642-2.195c3.307-4.041,6.933-7.808,10.789-11.323
				c1.094-0.998,2.23-1.946,3.367-2.895c0.029-0.021,0.054-0.039,0.084-0.061c2.867-2.111,5.887-4.036,8.846-6.015
				c10.708-7.164,22.21-13.104,33.861-18.562c2.916-1.366,5.858-2.679,8.807-3.979c1.379-0.606,2.762-1.2,4.146-1.793
				c0.201-0.084,0.437-0.181,0.725-0.301c6.566-2.729,13.189-5.328,19.823-7.891c12.597-4.867,25.271-9.531,37.869-14.399
				c5.78-2.233,11.537-4.528,17.261-6.903c4.182-1.735,8.35-3.502,12.502-5.303c1.349-0.584,2.688-1.184,4.029-1.783
				c-6.253,2.796,1.622-0.49,2.822-0.959c16.276-6.35,32.275-13.416,48.279-20.416c2.3-1.007,4.602-2.007,6.902-3.01
				c1.61,0.912,3.354,1.646,5.211,2.156c12.176,3.349,25.398-3.932,28.824-16.131c8.977-3.5,15.688-10.764,16.795-19.809
				c1.479-0.845,2.977-1.655,4.49-2.43c10.311-5.271,13.935-18.664,9.944-29c3.756-1.429,7.312-3.514,10.513-6.105
				c3.256,8.138,6.883,16.143,10.881,23.985c20.558,40.333,52.086,75.255,87.207,103.457
				c34.836,27.974,72.649,51.052,112.986,70.142c59.409,28.115,121.854,52.33,174.882,91.915
				c13.733,10.93,26.528,23.011,37.595,36.646c6.305,8.708,11.805,17.94,16.318,27.699c3.973,10.443,6.75,21.263,8.314,32.353
				l-0.554-4.123c0.421,2.781,0.946,5.42,1.683,7.938C5405.016,2331.436,5403.37,2333.143,5401.731,2334.857z M5700.983,1981.464
				c-5.871,8.523-11.867,16.96-17.947,25.335c-3.031,4.177-6.104,8.325-9.193,12.46c-1.543,2.066-3.102,4.122-4.657,6.177
				c-0.799,1.053-1.603,2.102-2.403,3.15c-13.11,16.858-26.806,33.259-41.019,49.198c-28.874,32.382-62.212,60.189-91.185,92.396
				c-25.93,28.822-48.847,60.213-72.097,91.217c-1.894-4.223-3.919-8.379-6.056-12.448c-9.816-18.705-23.479-35.788-38.295-50.767
				c-29.78-30.104-66.742-53.064-104.06-72.595c-34.276-17.938-69.881-33.112-104.899-49.5
				c-35.406-16.568-69.414-35.808-100.641-59.39c-20.042-15.934-38.607-33.688-54.637-53.674
				c-11.074-14.913-20.607-30.881-28.226-47.826c-6.614-16.68-11.302-34.014-14.075-51.739c-2.395-21.495-2.036-43.153,0.471-64.629
				c3.539-23.421,9.514-46.309,18.297-68.318c11.201-25.246,25.818-48.678,42.416-70.721c30.47-38.75,65.729-73.401,97.92-110.681
				c30.612-35.449,61.004-72.046,95.545-103.777c6.224-5.718,12.658-11.2,19.27-16.464c15.925-11.847,32.939-22.059,51.061-30.175
				c19.012-7.543,38.797-12.719,58.979-15.934c14.036-1.362,28.108-1.137,42.11,0.415c22.605,3.621,44.528,10.385,65.729,18.974
				c32.79,14.307,63.704,32.509,93.634,52.028c15.195,9.91,30.129,20.219,44.996,30.613c10.927,7.64,22.032,15.102,32.717,23.093
				c28.266,22.432,53.493,48.891,75.794,77.215c16.729,22.157,31.729,45.783,43.034,71.176c4.77,12.018,8.58,24.401,10.789,37.145
				c0.664,7.012,0.771,14.045,0.143,21.083c-1.775,19.849,17.947,36.5,36.5,36.5c0.599,0,1.195-0.015,1.791-0.045
				C5794.98,1827.453,5752.181,1907.134,5700.983,1981.464z M6903.788,1155.223c-16.057,20.491-32.973,40.283-50.683,59.366
				c-18.104,19.507-37.519,37.553-56.372,56.298c-30.748,30.57-56.313,66.034-86.254,97.396
				c-10.675,11.181-21.863,21.919-33.91,31.621c-7.635,5.606-15.645,10.69-24.188,14.779c-3.817,1.385-7.707,2.52-11.681,3.343
				c-1.745,0.128-3.466,0.353-5.151,0.677c-4.935-64.833-29.938-127.813-39.511-192c-0.964-7.995-1.69-16.011-2.153-24.049
				c36.199-3.184,72.309-7.546,108.276-13.521c56.8-9.435,112.823-23.637,166.813-43.717c20.811-7.74,41.101-16.524,60.947-26.178
				C6921.497,1131.434,6912.792,1143.438,6903.788,1155.223z"/>
			<path fill="#767676" d="M5170.202,4159.243c-14.063-52.694-66.963-84.573-114.977-102.16
				c-38.963-14.271-86.29-20.362-125.541-3.868c-10.043,4.221-17.145,13.063-13.969,24.603c0.691,2.521,2.045,4.979,3.842,7.162
				c-3.086,26.162-6.354,52.353-5.795,78.743c0.289,13.691,1.463,27.579,6.301,40.488c4.377,11.674,10.535,21.674,18.725,31.07
				c12.295,14.105,28.993,23.898,44.516,34.002c3.65,2.375,7.262,4.811,10.801,7.35c0.734,0.527,1.461,1.067,2.186,1.607
				c1.628,1.299,3.21,2.65,4.77,4.032c3.252,2.883,6.271,6.019,9.076,9.335c0.051,0.061,0.106,0.129,0.166,0.202
				c0.461,0.64,0.91,1.286,1.355,1.937c1.501,2.195,2.827,4.504,4.075,6.85c5.116,9.613,18.245,12.518,27.364,7.175
				c9.676-5.669,12.297-17.737,7.174-27.364c-9.508-17.869-24.852-30.832-41.326-42.045c-7.217-4.91-14.67-9.465-21.906-14.345
				c-1.803-1.215-3.583-2.463-5.352-3.729c-0.763-0.547-1.516-1.105-2.268-1.666c-3.293-2.625-6.422-5.447-9.387-8.44
				c-1.274-1.288-2.485-2.638-3.676-4.004c-0.289-0.329-0.557-0.675-0.836-1.013c-0.281-0.369-0.576-0.761-0.767-1.026
				c-2.185-3.082-4.047-6.372-5.694-9.767c0.131,0.094-1.688-4.353-2.057-5.5c-0.799-2.498-1.41-5.054-1.966-7.613
				c-0.128-0.592-0.392-2.596-0.44-2.805c-0.102-1.142-0.194-2.283-0.285-3.428c-0.295-3.762-0.441-7.532-0.549-11.303
				c-0.748-26.098,2.592-52.101,5.693-77.996c1.646-0.354,3.3-0.673,4.956-0.97c0.442-0.08,1.517-0.239,2.253-0.352
				c1.252-0.138,2.506-0.261,3.762-0.371c5.808-0.513,11.648-0.563,17.474-0.384c2.964,0.092,5.924,0.305,8.878,0.554
				c1.488,0.125,2.977,0.288,4.461,0.45c0.443,0.056,0.785,0.097,1.034,0.125c0.366,0.056,0.731,0.104,1.099,0.161
				c12.554,1.892,24.887,5.138,36.902,9.193c2.889,0.976,5.748,2.033,8.598,3.118c1.418,0.54,2.828,1.105,4.235,1.673
				c0.216,0.087,0.396,0.158,0.56,0.224c0.078,0.035,0.151,0.065,0.238,0.104c5.925,2.556,11.725,5.396,17.425,8.414
				c5.086,2.692,10.047,5.616,14.913,8.687c2.352,1.481,4.658,3.033,6.948,4.608c1.121,0.771,2.228,1.565,3.332,2.36
				c0.464,0.334,1.896,1.414,2.688,2.008c4.535,3.609,8.852,7.479,12.931,11.603c2.198,2.224,4.265,4.571,6.274,6.964
				c0.199,0.236,0.363,0.432,0.5,0.591c0.015,0.019,0.024,0.032,0.039,0.051c1.146,1.534,2.217,3.126,3.271,4.726
				c1.524,2.311,2.896,4.719,4.207,7.154c0.558,1.034,2.708,5.887,2.69,5.675c1.709,4.536,2.981,9.231,3.979,13.972
				c0.262,1.24,0.475,2.49,0.688,3.738c0.017,0.091,0.029,0.167,0.043,0.247c0.269,2.339,0.441,4.688,0.574,7.036
				c0.314,5.559,0.188,11.137-0.113,16.691c-0.189,3.488-0.509,6.97-0.865,10.444c-0.182,1.759-0.393,3.515-0.604,5.271
				c-0.017,0.123-0.031,0.246-0.047,0.369c-0.095,0.699-0.239,1.791-0.31,2.278c-1.093,7.666-2.38,15.304-3.608,22.949
				c-2.737,17.022-5.293,34.155-5.859,51.41c-0.357,10.901,9.369,20,20,20c11.174,0,19.643-9.106,20-20
				c0.188-5.679,0.586-11.338,1.143-16.991c0.274-2.805,0.609-5.604,0.957-8.396c0.017-0.129,0.03-0.242,0.043-0.352
				c0.252-1.813,0.52-3.62,0.789-5.428c1.685-11.311,3.686-22.57,5.299-33.893
				C5174.668,4207.323,5176.568,4183.104,5170.202,4159.243z"/>
		</g>
	</g>
	<g id="Court_Yard">
		<g>
			<polygon fill="#3C842D" points="3019.324,2324.5 3186,1996.5 3209,1974 3244.308,1979.596 3303.5,2008.552 4019,2410.673 
				4050.607,2441 4050.607,2463 3870.616,2790.314 3848.866,2818.063 3809,2831 3019.324,2375.429 3003,2356.5 			"/>
		</g>
	</g>
	<g id="Cricket_ground">
	</g>
	<g id="Athletic_ground">
		<g>
			<polygon fill="#2E3F1B" points="1517,4292 2093,3558.5 2138,3626.5 2197,3614.521 2256,3608.521 2314.302,3608.521 
				2358.615,3608.521 2423.5,3614.521 2465,3654.5 2528,3682.5 2613,3740.515 2635.5,3774.5 2662,3822.5 2712,3878.5 2737,3954.5 
				2737,4034.5 2765,4106.5 2765,4182.5 2765,4262.5 2635.5,4274.5 2588.5,4270.5 2458,4270.5 			"/>
		</g>
	</g>
	<g id="Ruger_ground">
		<g>
			<g>
				<path fill="#659E23" d="M1697.775,3140.545c52.099,353.455-396.251,799.116-779.012,777.955
					c-361.763-20-694.109-436.186-694.109-792.271c0-356.084,310.763-644.75,694.109-644.75
					C1302.109,2481.479,1645.85,2788.266,1697.775,3140.545z"/>
				<ellipse fill="#BCBDD1" cx="1114.055" cy="3315.254" rx="9.054" ry="10.496"/>
			</g>
			<polygon fill="#708E42" points="0,947.579 607.678,2140.738 29,2541 			"/>
		</g>
	</g>
	<g id="botany_department">
		<g>
			<polygon fill="#935F62" points="1641,1543 1683,1648.875 1781,1462.5 1675,1481 			"/>
			<polygon fill="#9B6157" points="1659,1398.5 1675,1481 1781,1462.5 			"/>
			<polygon fill="#B57D7A" points="1675,1481 1659,1398.5 1559,1576.459 1641,1543 			"/>
			<polygon fill="#CC9590" points="1641,1543 1559,1576.459 1683,1648.875 			"/>
			<polyline fill="#1D233D" points="1371.741,1355.13 1361.241,1409.127 1514.234,1510.087 1533.733,1455.625 1371.741,1355.13 
				1413.739,1307.132 1572.731,1404.627 1539.733,1455.625 			"/>
			<polygon fill="#8C8287" points="1512.734,1307.132 1641,1374.63 1863.717,909.653 1742.223,846.656 			"/>
			<polygon fill="#B08788" points="1742.223,846.656 1641,815.158 1416.739,1248.5 1512.734,1307.132 			"/>
			<polygon fill="#8E5D67" points="1500.735,900.653 1410.739,846.656 1281.746,1110.643 1361.241,1166.75 			"/>
			<polygon fill="#AC7978" points="1410.739,846.656 1323.744,791.159 1203.75,1025.146 1281.746,1104 			"/>
		</g>
	</g>
	<g id="PGIS">
		<g>
			<polygon fill="#E1A1B6" points="1289.995,2055.592 1056.756,1923.599 969.76,2118.589 1203.749,2249.083 			"/>
			<polygon fill="#7B434A" points="1068.755,1903.675 918.763,1956.597 969.76,2118.589 			"/>
			<polygon fill="#874B51" points="1068.755,1903.675 690.774,1692.61 732.772,1846.491 918.763,1956.597 			"/>
			<polygon fill="#C7858A" points="690.774,1692.61 593.279,1903.675 732.772,1846.491 			"/>
			<polygon fill="#B07577" points="732.772,1846.491 918.763,1956.597 967.582,2111.667 593.279,1903.675 			"/>
		</g>
	</g>
	<g id="maintanance">
		<g>
			<polygon fill="#68455C" points="993.759,1374.63 815.268,1728.66 904.514,1787.107 1077.755,1439.75 			"/>
			<polygon fill="#AF859A" points="993.759,1374.63 906.764,1337.129 732.772,1686.612 815.268,1728.66 			"/>
			<polygon fill="#8A7F8E" points="732.772,1686.612 684.775,1657.115 879.765,1239.634 1091.254,1353.628 1068.755,1398.5 
				905.264,1320.63 			"/>
		</g>
	</g>
	<g id="Geology_bulding">
		<g>
			<polygon fill="#674150" points="410.289,1023.646 314.293,1239.634 684.775,1430.126 780.43,1215.637 			"/>
			<polygon fill="#000724" points="482.583,1061.145 495.784,1023.646 732.772,1146.641 710.434,1179.33 			"/>
		</g>
	</g>
	<g id="Feeling_station">
		<g>
			<polygon fill="#726E84" points="0,579.675 26.303,531.677 162.797,594.674 69.801,860.161 8.304,831.662 			"/>
			<polygon fill="#84AFBE" points="387.786,725.167 314.293,689.169 342.788,593.174 417.784,630.672 			"/>
			<polygon fill="#4E7D92" points="342.788,593.174 366.039,564.675 437.283,605.173 417.784,630.672 			"/>
			<polygon fill="#7A7387" points="366.039,564.675 374.286,522.678 462.782,575.175 447.783,611.173 			"/>
			<polygon fill="#6A667C" points="374.286,522.678 401.285,497.179 489.78,546.676 462.782,575.175 			"/>
			<polygon fill="#757074" points="474.781,420.683 462.782,477.68 555.777,522.678 569.276,471.68 			"/>
			<polygon fill="#5F4F62" points="474.781,420.683 501.78,393.684 599.275,435.682 569.276,471.68 			"/>
			<polygon fill="#F8F7FF" points="123.799,432.682 110.299,464.181 204.795,522.678 221.294,477.68 			"/>
			<polygon fill="#726B7B" points="342.788,497.179 327.789,536.177 257.292,497.179 300.04,401.184 390.036,444.682 
				374.286,477.68 305.29,432.682 288.791,477.68 			"/>
		</g>
	</g>
	<g id="Jayathilake_Holl">
		<polygon fill="#D89C96" points="4883,3886.5 4771,3886.5 4853,3742.5 		"/>
		<g>
			<polygon fill="#AB7F85" points="5407,2792.5 5435,2908.5 5733,3084.5 5843,3044.5 			"/>
			<polygon fill="#8D6E66" points="5435,2908.5 5407,2792.5 5305,2924.5 			"/>
			<polygon fill="#CC908E" points="5305,2924.5 5435,2908.5 5733,3084.5 5603,3094.5 			"/>
			<polygon fill="#9F6B6F" points="5843,3044.5 5199,4152.5 5177,4072.5 5733,3084.5 			"/>
			<polygon fill="#DC9E96" points="5199,4152.5 4771,3886.5 4883,3886.5 5177,4072.5 			"/>
			<polygon fill="#71434C" points="4853,3742.5 5029,3850.5 5149,3662.5 5231,3706.5 5321,3566.5 5237,3512.5 5341,3318.5 
				5165,3196.5 5241,3068.5 5519,3222.5 5603,3094.5 5733,3084.5 5177,4072.5 4883,3886.5 			"/>
			<polygon fill="#271E36" points="5412.049,3785.948 5519,3856.5 5671,3618.5 5701,3644.5 5745,3550.5 5598.045,3465.944 			"/>
		</g>
	</g>
	<path fill="#C9ED9A" d="M2240,2744"/>
</g>
</svg>
